<?xml version="1.0" encoding="UTF-8" standalone="no"?>
<!-- Created with Inkscape (http://www.inkscape.org/) -->

<svg
   xmlns:dc="http://purl.org/dc/elements/1.1/"
   xmlns:cc="http://creativecommons.org/ns#"
   xmlns:rdf="http://www.w3.org/1999/02/22-rdf-syntax-ns#"
   xmlns:svg="http://www.w3.org/2000/svg"
   xmlns="http://www.w3.org/2000/svg"
   xmlns:sodipodi="http://sodipodi.sourceforge.net/DTD/sodipodi-0.dtd"
   xmlns:inkscape="http://www.inkscape.org/namespaces/inkscape"
   width="744.09448819"
   height="1052.3622047"
   id="svg2"
   version="1.1"
   inkscape:version="0.48.2 r9819"
   sodipodi:docname="spherical_interpolation.pdf">
  <defs
     id="defs4">
    <marker
       inkscape:stockid="Arrow2Mend"
       orient="auto"
       refY="0.0"
       refX="0.0"
       id="Arrow2Mend"
       style="overflow:visible;">
      <path
         id="path4222"
         style="font-size:12.0;fill-rule:evenodd;stroke-width:0.62500000;stroke-linejoin:round;"
         d="M 8.7185878,4.0337352 L -2.2072895,0.016013256 L 8.7185884,-4.0017078 C 6.9730900,-1.6296469 6.9831476,1.6157441 8.7185878,4.0337352 z "
         transform="scale(0.6) rotate(180) translate(0,0)" />
    </marker>
    <marker
       inkscape:stockid="Arrow1Lend"
       orient="auto"
       refY="0.0"
       refX="0.0"
       id="Arrow1Lend"
       style="overflow:visible;">
      <path
         id="path4198"
         d="M 0.0,0.0 L 5.0,-5.0 L -12.5,0.0 L 5.0,5.0 L 0.0,0.0 z "
         style="fill-rule:evenodd;stroke:#000000;stroke-width:1.0pt;marker-start:none;"
         transform="scale(0.8) rotate(180) translate(12.5,0)" />
    </marker>
  </defs>
  <sodipodi:namedview
     id="base"
     pagecolor="#ffffff"
     bordercolor="#666666"
     borderopacity="1.0"
     inkscape:pageopacity="0.0"
     inkscape:pageshadow="2"
     inkscape:zoom="1.979899"
     inkscape:cx="337.43842"
     inkscape:cy="860.29693"
     inkscape:document-units="px"
     inkscape:current-layer="layer1"
     showgrid="false"
     inkscape:window-width="1920"
     inkscape:window-height="1138"
     inkscape:window-x="1912"
     inkscape:window-y="-8"
     inkscape:window-maximized="1" />
  <metadata
     id="metadata7">
    <rdf:RDF>
      <cc:Work
         rdf:about="">
        <dc:format>image/svg+xml</dc:format>
        <dc:type
           rdf:resource="http://purl.org/dc/dcmitype/StillImage" />
        <dc:title></dc:title>
      </cc:Work>
    </rdf:RDF>
  </metadata>
  <g
     inkscape:label="Layer 1"
     inkscape:groupmode="layer"
     id="layer1">
    <path
       sodipodi:type="star"
       style="fill:#06ff00;fill-opacity:1;stroke:#000000;stroke-width:2;stroke-miterlimit:4;stroke-opacity:1;stroke-dasharray:none;stroke-dashoffset:0"
       id="path3896-2-3"
       sodipodi:sides="3"
       sodipodi:cx="90.156113"
       sodipodi:cy="58.372074"
       sodipodi:r1="7.2326941"
       sodipodi:r2="3.6163471"
       sodipodi:arg1="0.79774322"
       sodipodi:arg2="1.8449408"
       inkscape:flatsided="true"
       inkscape:rounded="0"
       inkscape:randomized="0"
       d="M 95.206875,63.549106 83.14729,60.157647 92.114172,51.409469 z"
       inkscape:transform-center-x="-0.69870454"
       inkscape:transform-center-y="-0.54144216"
       transform="matrix(-0.57608284,-0.18229248,0.18229248,-0.57608284,310.05593,232.61787)" />
    <path
       sodipodi:type="arc"
       style="fill:none;stroke:#000000;stroke-width:1px;stroke-linecap:butt;stroke-linejoin:miter;stroke-opacity:1"
       id="path2987"
       sodipodi:cx="216.93025"
       sodipodi:cy="202.57135"
       sodipodi:rx="106.82363"
       sodipodi:ry="106.82363"
       d="m 323.75388,202.57135 a 106.82363,106.82363 0 1 1 -213.64726,0 106.82363,106.82363 0 1 1 213.64726,0 z"
       transform="matrix(0.9926893,0,0,0.9926893,104.96453,74.135801)" />
    <path
       sodipodi:type="star"
       style="fill:#06ff00;fill-opacity:1;stroke:#000000;stroke-width:2;stroke-miterlimit:4;stroke-opacity:1;stroke-dasharray:none;stroke-dashoffset:0"
       id="path3896-2"
       sodipodi:sides="3"
       sodipodi:cx="90.156113"
       sodipodi:cy="58.372074"
       sodipodi:r1="7.2326941"
       sodipodi:r2="3.6163471"
       sodipodi:arg1="0.79774322"
       sodipodi:arg2="1.8449408"
       inkscape:flatsided="true"
       inkscape:rounded="0"
       inkscape:randomized="0"
       d="M 95.206875,63.549106 83.14729,60.157647 92.114172,51.409469 z"
       inkscape:transform-center-x="-0.69870454"
       inkscape:transform-center-y="-0.54144216"
       transform="matrix(-0.57608284,-0.18229248,0.18229248,-0.57608284,287.99221,188.9772)" />
    <path
       sodipodi:type="arc"
       style="fill:none"
       id="path3768"
       sodipodi:cx="96.722107"
       sodipodi:cy="76.807358"
       sodipodi:rx="25.001276"
       sodipodi:ry="25.001276"
       d="m 121.72338,76.807358 a 25.001276,25.001276 0 1 1 -50.002549,0 25.001276,25.001276 0 1 1 50.002549,0 z"
       transform="matrix(0.9926893,0,0,0.9926893,104.96453,74.135801)" />
    <path
       sodipodi:type="arc"
       style="fill:#000000;fill-opacity:0"
       id="path3782"
       sodipodi:cx="210.11172"
       sodipodi:cy="188.42921"
       sodipodi:rx="53.538086"
       sodipodi:ry="53.285545"
       d="m 263.64981,188.42921 a 53.538086,53.285545 0 1 1 -107.07617,0 53.538086,53.285545 0 1 1 107.07617,0 z"
       transform="matrix(0.9926893,0,0,0.9926893,104.96453,74.135801)" />
    <path
       sodipodi:type="arc"
       style="fill:#000000;fill-opacity:0;stroke:#000000;stroke-opacity:1;stroke-width:1.00736454;stroke-miterlimit:4;stroke-dasharray:none"
       id="path3818"
       sodipodi:cx="216.42519"
       sodipodi:cy="215.19826"
       sodipodi:rx="155.81602"
       sodipodi:ry="155.81602"
       d="m 372.24121,215.19826 a 155.81602,155.81602 0 1 1 -311.632049,0 155.81602,155.81602 0 1 1 311.632049,0 z"
       transform="matrix(0.9926893,0,0,0.9926893,104.46314,61.099821)" />
    <path
       sodipodi:type="star"
       style="fill:#ff0000;fill-opacity:1;stroke:#000000;stroke-width:2;stroke-miterlimit:4;stroke-opacity:1;stroke-dasharray:none;stroke-dashoffset:0"
       id="path3896"
       sodipodi:sides="3"
       sodipodi:cx="90.156113"
       sodipodi:cy="58.372074"
       sodipodi:r1="7.2326941"
       sodipodi:r2="3.6163471"
       sodipodi:arg1="0.79774322"
       sodipodi:arg2="1.8449408"
       inkscape:flatsided="true"
       inkscape:rounded="0"
       inkscape:randomized="0"
       d="M 95.206875,63.549106 83.14729,60.157647 92.114172,51.409469 z"
       inkscape:transform-center-x="-0.69870454"
       inkscape:transform-center-y="-0.54144216"
       transform="matrix(-0.57608284,-0.18229248,0.18229248,-0.57608284,265.57317,232.65057)" />
    <path
       style="fill:none;stroke:#000000;stroke-width:0.67393744px;stroke-linecap:butt;stroke-linejoin:miter;stroke-opacity:1"
       d="M 207.54493,165.84661 428.11752,386.41917"
       id="path3820"
       inkscape:connector-curvature="0" />
    <path
       style="fill:none;stroke:#000000;stroke-width:0.64495605px;stroke-linecap:butt;stroke-linejoin:miter;stroke-opacity:1"
       d="M 426.27256,165.25144 209.64748,381.87651"
       id="path3822"
       inkscape:connector-curvature="0" />
    <path
       sodipodi:type="star"
       style="fill:#ff0000;fill-opacity:1;stroke:#000000;stroke-width:2;stroke-miterlimit:4;stroke-opacity:1;stroke-dasharray:none;stroke-dashoffset:0"
       id="path3896-1"
       sodipodi:sides="3"
       sodipodi:cx="90.156113"
       sodipodi:cy="58.372074"
       sodipodi:r1="7.2326941"
       sodipodi:r2="3.6163471"
       sodipodi:arg1="0.79774322"
       sodipodi:arg2="1.8449408"
       inkscape:flatsided="true"
       inkscape:rounded="0"
       inkscape:randomized="0"
       d="M 95.206875,63.549106 83.14729,60.157647 92.114172,51.409469 z"
       inkscape:transform-center-x="-0.69870454"
       inkscape:transform-center-y="-0.54144216"
       transform="matrix(-0.57608284,-0.18229248,0.18229248,-0.57608284,357.94757,192.19147)" />
    <path
       style="fill:none;stroke:#000000;stroke-width:0.73563266px;stroke-linecap:butt;stroke-linejoin:miter;stroke-opacity:1"
       d="m 316.54849,119.2539 0,311.35939"
       id="path3824"
       inkscape:connector-curvature="0" />
    <path
       style="fill:none;stroke:#000000;stroke-width:0.67973125px;stroke-linecap:butt;stroke-linejoin:miter;stroke-opacity:1"
       d="m 164.38649,274.97552 309.49237,0"
       id="path3826"
       inkscape:connector-curvature="0" />
    <path
       sodipodi:type="arc"
       style="fill:#000000;fill-opacity:1;stroke:#000000;stroke-width:2;stroke-miterlimit:4;stroke-opacity:1;stroke-dasharray:none;stroke-dashoffset:0"
       id="path3834"
       sodipodi:cx="139.14851"
       sodipodi:cy="129.3353"
       sodipodi:rx="2.3991122"
       sodipodi:ry="2.3991122"
       d="m 141.54763,129.3353 a 2.3991122,2.3991122 0 1 1 -4.79823,0 2.3991122,2.3991122 0 1 1 4.79823,0 z"
       transform="matrix(0.9926893,0,0,0.9926893,105.08987,73.509071)" />
    <path
       sodipodi:type="arc"
       style="fill:#000000;fill-opacity:1;stroke:#000000;stroke-width:2;stroke-miterlimit:4;stroke-opacity:1;stroke-dasharray:none;stroke-dashoffset:0"
       id="path3834-7"
       sodipodi:cx="139.14851"
       sodipodi:cy="129.3353"
       sodipodi:rx="2.3991122"
       sodipodi:ry="2.3991122"
       d="m 141.54763,129.3353 a 2.3991122,2.3991122 0 1 1 -4.79823,0 2.3991122,2.3991122 0 1 1 4.79823,0 z"
       transform="matrix(0.9926893,0,0,0.9926893,178.41726,41.169811)" />
    <path
       sodipodi:type="arc"
       style="fill:#000000;fill-opacity:1;stroke:#000000;stroke-width:2;stroke-miterlimit:4;stroke-opacity:1;stroke-dasharray:none;stroke-dashoffset:0"
       id="path3834-4"
       sodipodi:cx="139.14851"
       sodipodi:cy="129.3353"
       sodipodi:rx="2.3991122"
       sodipodi:ry="2.3991122"
       d="m 141.54763,129.3353 a 2.3991122,2.3991122 0 1 1 -4.79823,0 2.3991122,2.3991122 0 1 1 4.79823,0 z"
       transform="matrix(0.9926893,0,0,0.9926893,70.243704,38.412201)" />
    <path
       sodipodi:type="arc"
       style="fill:#000000;fill-opacity:1;stroke:#000000;stroke-width:2;stroke-miterlimit:4;stroke-opacity:1;stroke-dasharray:none;stroke-dashoffset:0"
       id="path3834-0"
       sodipodi:cx="139.14851"
       sodipodi:cy="129.3353"
       sodipodi:rx="2.3991122"
       sodipodi:ry="2.3991122"
       d="m 141.54763,129.3353 a 2.3991122,2.3991122 0 1 1 -4.79823,0 2.3991122,2.3991122 0 1 1 4.79823,0 z"
       transform="matrix(0.9926893,0,0,0.9926893,178.04122,-8.0911486)" />
    <path
       sodipodi:type="arc"
       style="fill:#0015ff;fill-opacity:1;stroke:#000000;stroke-width:2;stroke-miterlimit:4;stroke-opacity:1;stroke-dasharray:none;stroke-dashoffset:0"
       id="path3941"
       sodipodi:cx="151.64915"
       sodipodi:cy="85.267387"
       sodipodi:rx="3.7880721"
       sodipodi:ry="3.7880721"
       d="m 155.43723,85.267387 a 3.7880721,3.7880721 0 1 1 -7.57615,0 3.7880721,3.7880721 0 1 1 7.57615,0 z"
       transform="matrix(0.95341419,0,0,0.95341419,112.08045,76.91547)" />
    <path
       sodipodi:type="arc"
       style="fill:#000000;fill-opacity:0;stroke:#000000;stroke-width:1.00047588;stroke-miterlimit:4;stroke-opacity:1;stroke-dasharray:1.00047585, 1.00047585;stroke-dashoffset:0"
       id="path3818-4"
       sodipodi:cx="216.42519"
       sodipodi:cy="215.19826"
       sodipodi:rx="155.81602"
       sodipodi:ry="155.81602"
       d="m 372.24121,215.19826 a 155.81602,155.81602 0 1 1 -311.632049,0 155.81602,155.81602 0 1 1 311.632049,0 z"
       transform="matrix(0.84513396,0,0,0.85156956,136.14713,91.719241)" />
    <path
       style="fill:none;stroke:#000000;stroke-width:0.7350539;stroke-linecap:butt;stroke-linejoin:miter;stroke-miterlimit:4;stroke-opacity:1;stroke-dasharray:0.73505394, 0.73505394;stroke-dashoffset:0"
       d="M 316.928,275.85639 246.01767,137.37706"
       id="path3961"
       inkscape:connector-curvature="0" />
    <path
       sodipodi:type="arc"
       style="fill:#000000;fill-opacity:1;stroke:#000000;stroke-width:2;stroke-miterlimit:4;stroke-opacity:1;stroke-dasharray:none;stroke-dashoffset:0"
       id="path3834-5"
       sodipodi:cx="139.14851"
       sodipodi:cy="129.3353"
       sodipodi:rx="2.3991122"
       sodipodi:ry="2.3991122"
       d="m 141.54763,129.3353 a 2.3991122,2.3991122 0 1 1 -4.79823,0 2.3991122,2.3991122 0 1 1 4.79823,0 z"
       transform="matrix(0.9926893,0,0,0.9926893,76.021099,147.01717)" />
    <path
       sodipodi:type="arc"
       style="fill:#000000;fill-opacity:1;stroke:#000000;stroke-width:2;stroke-miterlimit:4;stroke-opacity:1;stroke-dasharray:none;stroke-dashoffset:0"
       id="path3834-1"
       sodipodi:cx="139.14851"
       sodipodi:cy="129.3353"
       sodipodi:rx="2.3991122"
       sodipodi:ry="2.3991122"
       d="m 141.54763,129.3353 a 2.3991122,2.3991122 0 1 1 -4.79823,0 2.3991122,2.3991122 0 1 1 4.79823,0 z"
       transform="matrix(0.9926893,0,0,0.9926893,26.154474,147.00813)" />
    <path
       sodipodi:type="arc"
       style="fill:#000000;fill-opacity:1;stroke:#000000;stroke-width:2;stroke-miterlimit:4;stroke-opacity:1;stroke-dasharray:none;stroke-dashoffset:0"
       id="path3834-71"
       sodipodi:cx="139.14851"
       sodipodi:cy="129.3353"
       sodipodi:rx="2.3991122"
       sodipodi:ry="2.3991122"
       d="m 141.54763,129.3353 a 2.3991122,2.3991122 0 1 1 -4.79823,0 2.3991122,2.3991122 0 1 1 4.79823,0 z"
       transform="matrix(0.9926893,0,0,0.9926893,105.26161,220.04385)" />
    <path
       sodipodi:type="arc"
       style="fill:#000000;fill-opacity:1;stroke:#000000;stroke-width:2;stroke-miterlimit:4;stroke-opacity:1;stroke-dasharray:none;stroke-dashoffset:0"
       id="path3834-15"
       sodipodi:cx="139.14851"
       sodipodi:cy="129.3353"
       sodipodi:rx="2.3991122"
       sodipodi:ry="2.3991122"
       d="m 141.54763,129.3353 a 2.3991122,2.3991122 0 1 1 -4.79823,0 2.3991122,2.3991122 0 1 1 4.79823,0 z"
       transform="matrix(0.9926893,0,0,0.9926893,70.797334,254.32956)"
       inkscape:transform-center-x="-37.321429"
       inkscape:transform-center-y="-33.035714" />
    <path
       sodipodi:type="arc"
       style="fill:#000000;fill-opacity:1;stroke:#000000;stroke-width:2;stroke-miterlimit:4;stroke-opacity:1;stroke-dasharray:none;stroke-dashoffset:0"
       id="path3834-2"
       sodipodi:cx="139.14851"
       sodipodi:cy="129.3353"
       sodipodi:rx="2.3991122"
       sodipodi:ry="2.3991122"
       d="m 141.54763,129.3353 a 2.3991122,2.3991122 0 1 1 -4.79823,0 2.3991122,2.3991122 0 1 1 4.79823,0 z"
       transform="matrix(0.9926893,0,0,0.9926893,178.29733,253.07956)"
       inkscape:transform-center-y="-3.3742623" />
    <path
       sodipodi:type="arc"
       style="fill:#000000;fill-opacity:1;stroke:#000000;stroke-width:2;stroke-miterlimit:4;stroke-opacity:1;stroke-dasharray:none;stroke-dashoffset:0"
       id="path3834-76"
       sodipodi:cx="139.14851"
       sodipodi:cy="129.3353"
       sodipodi:rx="2.3991122"
       sodipodi:ry="2.3991122"
       d="m 141.54763,129.3353 a 2.3991122,2.3991122 0 1 1 -4.79823,0 2.3991122,2.3991122 0 1 1 4.79823,0 z"
       transform="matrix(0.9926893,0,0,0.9926893,178.29734,301.11528)" />
    <path
       sodipodi:type="arc"
       style="fill:#000000;fill-opacity:1;stroke:#000000;stroke-width:2;stroke-miterlimit:4;stroke-opacity:1;stroke-dasharray:none;stroke-dashoffset:0"
       id="path3834-14"
       sodipodi:cx="139.14851"
       sodipodi:cy="129.3353"
       sodipodi:rx="2.3991122"
       sodipodi:ry="2.3991122"
       d="m 141.54763,129.3353 a 2.3991122,2.3991122 0 1 1 -4.79823,0 2.3991122,2.3991122 0 1 1 4.79823,0 z"
       transform="matrix(0.9926893,0,0,0.9926893,255.08305,223.07956)" />
    <path
       sodipodi:type="arc"
       style="fill:#000000;fill-opacity:1;stroke:#000000;stroke-width:2;stroke-miterlimit:4;stroke-opacity:1;stroke-dasharray:none;stroke-dashoffset:0"
       id="path3834-23"
       sodipodi:cx="139.14851"
       sodipodi:cy="129.3353"
       sodipodi:rx="2.3991122"
       sodipodi:ry="2.3991122"
       d="m 141.54763,129.3353 a 2.3991122,2.3991122 0 1 1 -4.79823,0 2.3991122,2.3991122 0 1 1 4.79823,0 z"
       transform="matrix(0.9926893,0,0,0.9926893,289.54733,257.54385)" />
    <path
       sodipodi:type="arc"
       style="fill:#000000;fill-opacity:1;stroke:#000000;stroke-width:2;stroke-miterlimit:4;stroke-opacity:1;stroke-dasharray:none;stroke-dashoffset:0"
       id="path3834-22"
       sodipodi:cx="139.14851"
       sodipodi:cy="129.3353"
       sodipodi:rx="2.3991122"
       sodipodi:ry="2.3991122"
       d="m 141.54763,129.3353 a 2.3991122,2.3991122 0 1 1 -4.79823,0 2.3991122,2.3991122 0 1 1 4.79823,0 z"
       transform="matrix(0.9926893,0,0,0.9926893,288.29733,146.65098)" />
    <path
       sodipodi:type="arc"
       style="fill:#000000;fill-opacity:1;stroke:#000000;stroke-width:2;stroke-miterlimit:4;stroke-opacity:1;stroke-dasharray:none;stroke-dashoffset:0"
       id="path3834-16"
       sodipodi:cx="139.14851"
       sodipodi:cy="129.3353"
       sodipodi:rx="2.3991122"
       sodipodi:ry="2.3991122"
       d="m 141.54763,129.3353 a 2.3991122,2.3991122 0 1 1 -4.79823,0 2.3991122,2.3991122 0 1 1 4.79823,0 z"
       transform="matrix(0.9926893,0,0,0.9926893,335.79733,146.29385)" />
    <path
       sodipodi:type="arc"
       style="fill:#000000;fill-opacity:1;stroke:#000000;stroke-width:2;stroke-miterlimit:4;stroke-opacity:1;stroke-dasharray:none;stroke-dashoffset:0"
       id="path3834-8"
       sodipodi:cx="139.14851"
       sodipodi:cy="129.3353"
       sodipodi:rx="2.3991122"
       sodipodi:ry="2.3991122"
       d="m 141.54763,129.3353 a 2.3991122,2.3991122 0 1 1 -4.79823,0 2.3991122,2.3991122 0 1 1 4.79823,0 z"
       transform="matrix(0.9926893,0,0,0.9926893,255.08305,69.865273)" />
    <path
       sodipodi:type="arc"
       style="fill:#000000;fill-opacity:1;stroke:#000000;stroke-width:2;stroke-miterlimit:4;stroke-opacity:1;stroke-dasharray:none;stroke-dashoffset:0"
       id="path3834-57"
       sodipodi:cx="139.14851"
       sodipodi:cy="129.3353"
       sodipodi:rx="2.3991122"
       sodipodi:ry="2.3991122"
       d="m 141.54763,129.3353 a 2.3991122,2.3991122 0 1 1 -4.79823,0 2.3991122,2.3991122 0 1 1 4.79823,0 z"
       transform="matrix(0.9926893,0,0,0.9926893,289.19019,36.472416)" />
    <path
       style="fill:none;stroke:#000000;stroke-width:1.64209569;stroke-linecap:butt;stroke-linejoin:miter;stroke-miterlimit:4;stroke-opacity:1;stroke-dasharray:1.64209577, 4.92628731;stroke-dashoffset:0;marker-end:url(#Arrow2Mend)"
       d="M 160.61016,184.6528 472.04371,97.567509"
       id="path3828"
       inkscape:connector-curvature="0" />
    <path
       sodipodi:type="arc"
       style="fill:none;stroke:#000000;stroke-width:1.66741828;stroke-linecap:butt;stroke-linejoin:miter;stroke-opacity:1;stroke-miterlimit:4;stroke-dasharray:none"
       id="path2987-6"
       sodipodi:cx="216.93025"
       sodipodi:cy="202.57135"
       sodipodi:rx="106.82363"
       sodipodi:ry="106.82363"
       d="m 323.75388,202.57135 a 106.82363,106.82363 0 1 1 -213.64726,0 106.82363,106.82363 0 1 1 213.64726,0 z"
       transform="matrix(0.59972954,0,0,0.59972954,190.37142,154.06685)" />
    <path
       sodipodi:type="arc"
       style="fill:#000000;fill-opacity:1;stroke:#000000;stroke-width:2;stroke-miterlimit:4;stroke-opacity:1;stroke-dasharray:none;stroke-dashoffset:0"
       id="path3834-8-1"
       sodipodi:cx="139.14851"
       sodipodi:cy="129.3353"
       sodipodi:rx="2.3991122"
       sodipodi:ry="2.3991122"
       d="m 141.54763,129.3353 a 2.3991122,2.3991122 0 1 1 -4.79823,0 2.3991122,2.3991122 0 1 1 4.79823,0 z"
       transform="matrix(0.9926893,0,0,0.9926893,225.52368,99.940478)" />
    <path
       sodipodi:type="arc"
       style="fill:#000000;fill-opacity:1;stroke:#000000;stroke-width:2;stroke-miterlimit:4;stroke-opacity:1;stroke-dasharray:none;stroke-dashoffset:0"
       id="path3834-8-8"
       sodipodi:cx="139.14851"
       sodipodi:cy="129.3353"
       sodipodi:rx="2.3991122"
       sodipodi:ry="2.3991122"
       d="m 141.54763,129.3353 a 2.3991122,2.3991122 0 1 1 -4.79823,0 2.3991122,2.3991122 0 1 1 4.79823,0 z"
       transform="matrix(0.9926893,0,0,0.9926893,246.48434,146.4075)" />
    <path
       sodipodi:type="arc"
       style="fill:#000000;fill-opacity:1;stroke:#000000;stroke-width:2;stroke-miterlimit:4;stroke-opacity:1;stroke-dasharray:none;stroke-dashoffset:0"
       id="path3834-8-9"
       sodipodi:cx="139.14851"
       sodipodi:cy="129.3353"
       sodipodi:rx="2.3991122"
       sodipodi:ry="2.3991122"
       d="m 141.54763,129.3353 a 2.3991122,2.3991122 0 1 1 -4.79823,0 2.3991122,2.3991122 0 1 1 4.79823,0 z"
       transform="matrix(0.9926893,0,0,0.9926893,225.77622,194.1372)" />
    <path
       sodipodi:type="arc"
       style="fill:#000000;fill-opacity:1;stroke:#000000;stroke-width:2;stroke-miterlimit:4;stroke-opacity:1;stroke-dasharray:none;stroke-dashoffset:0"
       id="path3834-8-2"
       sodipodi:cx="139.14851"
       sodipodi:cy="129.3353"
       sodipodi:rx="2.3991122"
       sodipodi:ry="2.3991122"
       d="m 141.54763,129.3353 a 2.3991122,2.3991122 0 1 1 -4.79823,0 2.3991122,2.3991122 0 1 1 4.79823,0 z"
       transform="matrix(0.9926893,0,0,0.9926893,178.29904,210.80472)" />
    <path
       sodipodi:type="arc"
       style="fill:#000000;fill-opacity:1;stroke:#000000;stroke-width:2;stroke-miterlimit:4;stroke-opacity:1;stroke-dasharray:none;stroke-dashoffset:0"
       id="path3834-8-7"
       sodipodi:cx="139.14851"
       sodipodi:cy="129.3353"
       sodipodi:rx="2.3991122"
       sodipodi:ry="2.3991122"
       d="m 141.54763,129.3353 a 2.3991122,2.3991122 0 1 1 -4.79823,0 2.3991122,2.3991122 0 1 1 4.79823,0 z"
       transform="matrix(0.9926893,0,0,0.9926893,134.60994,190.60167)" />
    <path
       sodipodi:type="arc"
       style="fill:#000000;fill-opacity:1;stroke:#000000;stroke-width:2;stroke-miterlimit:4;stroke-opacity:1;stroke-dasharray:none;stroke-dashoffset:0"
       id="path3834-8-95"
       sodipodi:cx="139.14851"
       sodipodi:cy="129.3353"
       sodipodi:rx="2.3991122"
       sodipodi:ry="2.3991122"
       d="m 141.54763,129.3353 a 2.3991122,2.3991122 0 1 1 -4.79823,0 2.3991122,2.3991122 0 1 1 4.79823,0 z"
       transform="matrix(0.9926893,0,0,0.9926893,117.94243,146.4075)" />
    <path
       sodipodi:type="arc"
       style="fill:#000000;fill-opacity:1;stroke:#000000;stroke-width:2;stroke-miterlimit:4;stroke-opacity:1;stroke-dasharray:none;stroke-dashoffset:0"
       id="path3834-8-4"
       sodipodi:cx="139.14851"
       sodipodi:cy="129.3353"
       sodipodi:rx="2.3991122"
       sodipodi:ry="2.3991122"
       d="m 141.54763,129.3353 a 2.3991122,2.3991122 0 1 1 -4.79823,0 2.3991122,2.3991122 0 1 1 4.79823,0 z"
       transform="matrix(0.9926893,0,0,0.9926893,135.36756,103.98109)" />
    <path
       sodipodi:type="arc"
       style="fill:#000000;fill-opacity:1;stroke:#000000;stroke-width:2;stroke-miterlimit:4;stroke-opacity:1;stroke-dasharray:none;stroke-dashoffset:0"
       id="path3834-8-3"
       sodipodi:cx="139.14851"
       sodipodi:cy="129.3353"
       sodipodi:rx="2.3991122"
       sodipodi:ry="2.3991122"
       d="m 141.54763,129.3353 a 2.3991122,2.3991122 0 1 1 -4.79823,0 2.3991122,2.3991122 0 1 1 4.79823,0 z"
       transform="matrix(0.9926893,0,0,0.9926893,178.55158,83.272966)" />
    <text
       xml:space="preserve"
       style="font-size:40px;font-style:normal;font-weight:normal;line-height:125%;letter-spacing:0px;word-spacing:0px;fill:#000000;fill-opacity:1;stroke:none;font-family:Sans"
       x="291.93408"
       y="71.504059"
       id="text5004"
       sodipodi:linespacing="125%"><tspan
         sodipodi:role="line"
         id="tspan5006"
         x="291.93408"
         y="71.504059" /></text>
    <path
       style="fill:#ffff00;fill-opacity:0.28947368;stroke:#000000;stroke-width:0.17857143000000000;stroke-miterlimit:4;stroke-opacity:1;stroke-dasharray:none;stroke-dashoffset:0"
       d="m 244.62156,198.79516 c -0.87137,-0.41234 -1.84704,-0.43846 -2.72202,-0.0729 l -0.65699,0.2745 -7.22495,-7.22495 -7.22495,-7.22495 1.54838,-0.76792 c 0.85162,-0.42236 1.54839,-0.81635 1.54839,-0.87553 0,-0.0592 -0.58259,-0.47671 -1.29464,-0.92783 -0.71206,-0.45111 -1.48946,-1.02764 -1.72756,-1.28116 -0.2381,-0.25353 -0.53867,-0.46096 -0.66794,-0.46096 -0.12926,0 -1.16328,-0.60267 -2.29782,-1.33928 -1.13454,-0.73661 -2.09959,-1.33929 -2.14456,-1.33929 -0.045,0 -0.0818,0.42125 -0.0818,0.93611 l 0,0.9361 -4.27843,-4.27564 c -3.90903,-3.90649 -4.29743,-4.34977 -4.49847,-5.13421 -0.21343,-0.83277 -0.2368,-0.85543 -0.77767,-0.75396 -0.85216,0.15987 -1.06456,-0.22379 -0.60752,-1.09735 0.40055,-0.76561 0.38907,-2.21673 -0.0228,-2.87617 -0.19269,-0.30854 -0.003,-0.55114 1.8152,-2.32224 5.38291,-5.24331 13.63628,-11.83833 20.78036,-16.60496 2.66071,-1.77526 8.65333,-5.46472 9.24466,-5.69163 0.27809,-0.10672 0.30891,0.0348 0.30891,1.41842 0,0.84533 0.0428,1.53696 0.0951,1.53696 0.0523,0 2.0239,-0.99247 4.3813,-2.20549 l 4.2862,-2.20549 -1.45115,-0.9527 -1.45114,-0.95271 0.86448,-0.44203 c 5.27817,-2.69883 13.73373,-6.19065 20.19382,-8.33925 13.03886,-4.33668 25.66566,-6.74047 40.33843,-7.67932 l 1.81061,-0.11585 0.21898,0.66352 c 0.31704,0.96061 1.43194,2.00172 2.40635,2.24708 l 0.80701,0.20321 0,7.23148 0,7.23148 -0.47565,-0.31166 c -0.26161,-0.17141 -0.74376,-0.46984 -1.07143,-0.66317 l -0.59578,-0.35152 -0.002,1.04443 c -9e-4,0.57443 -0.0514,1.45937 -0.11234,1.96653 -0.10973,0.91334 -0.1182,0.92397 -0.89131,1.11864 -0.77288,0.19461 -0.78052,0.20418 -0.78052,0.97843 0,0.86019 0.1775,1.01763 0.97534,0.86511 l 0.50627,-0.0968 -0.0943,1.99018 c -0.0518,1.09459 -0.0617,1.99017 -0.022,1.99017 0.0398,0 0.63277,-0.28226 1.31782,-0.62725 l 1.24554,-0.62724 0,10.25074 0,10.25074 -0.48018,0.12052 c -0.94273,0.23661 -1.78536,0.97822 -2.28943,2.01494 -0.31668,0.65131 -0.45207,0.69543 -2.58753,0.84313 -11.94912,0.82648 -26.52421,4.94003 -38.09917,10.75278 l -1.5813,0.79411 -2.07941,-1.34012 c -1.51898,-0.97894 -2.06756,-1.42715 -2.03545,-1.66302 0.0663,-0.48673 -0.22191,-0.82204 -0.60202,-0.70048 -0.30257,0.0968 -0.33832,0.33492 -0.37143,2.47446 -0.0202,1.30207 -0.0844,2.77489 -0.14278,3.27294 l -0.10615,0.90553 -2.35722,1.49098 c -5.70529,3.60868 -11.78785,8.33588 -16.1278,12.5341 -0.89526,0.86601 -1.69883,1.56806 -1.78572,1.56011 -0.0869,-0.008 -0.47941,-0.16656 -0.87227,-0.35246 l 0,0 z m -16.62931,-18.96009 c 0.15061,-0.23915 0.12445,-0.37938 -0.11549,-0.61933 -0.29453,-0.29453 -0.32969,-0.29068 -0.69657,0.0762 -0.32787,0.32787 -0.35053,0.42957 -0.14964,0.67163 0.2867,0.34545 0.69783,0.29051 0.9617,-0.1285 l 0,0 z m 1.0936,-1.74442 c -0.33462,-0.36975 -0.33462,-0.36975 -0.69176,-0.0126 -0.34953,0.34953 -0.35001,0.36503 -0.0225,0.72689 0.33462,0.36975 0.33462,0.36975 0.69176,0.0126 0.34953,-0.34953 0.35001,-0.36503 0.0225,-0.72689 z m 1.4064,-0.57701 c 0.14977,-0.23782 0.12648,-0.37736 -0.10094,-0.60478 -0.53495,-0.53494 -1.33306,0.1642 -0.85079,0.74529 0.27766,0.33456 0.69099,0.27354 0.95173,-0.14051 l 0,0 z m 1.0936,-1.74442 c -0.33462,-0.36975 -0.33462,-0.36975 -0.69176,-0.0126 -0.34953,0.34953 -0.35001,0.36503 -0.0225,0.72689 0.33462,0.36975 0.33462,0.36975 0.69176,0.0126 0.34953,-0.34953 0.35001,-0.36503 0.0225,-0.72689 z m 34.5265,0.73479 c 0.3059,-0.19386 0.19759,-0.80506 -0.15355,-0.86645 -0.50441,-0.0882 -0.77009,0.22561 -0.54582,0.64466 0.22239,0.41554 0.33652,0.45174 0.69937,0.22179 z m -33.01432,-1.43211 c -0.003,-0.0584 -0.12472,-0.26368 -0.27021,-0.45609 -0.26144,-0.34577 -0.26903,-0.34532 -0.6527,0.0383 -0.37867,0.37867 -0.38009,0.39711 -0.058,0.75307 0.30921,0.34167 0.3511,0.34599 0.65838,0.0679 0.18048,-0.16334 0.3256,-0.34479 0.32248,-0.40323 l 0,0 z m 32.4694,-0.4717 c -0.15934,-0.34971 -0.24733,-0.38261 -0.59703,-0.22328 -0.34971,0.15934 -0.38261,0.24733 -0.22327,0.59703 0.15933,0.34971 0.24732,0.38261 0.59703,0.22328 0.3497,-0.15934 0.38261,-0.24733 0.22327,-0.59703 z m -31.32518,-0.47942 c 0.15026,-0.23859 0.12533,-0.37851 -0.10923,-0.61306 -0.28617,-0.28617 -0.3245,-0.28528 -0.65654,0.0152 -0.29205,0.2643 -0.31601,0.37798 -0.13948,0.6618 0.24914,0.40056 0.62966,0.37368 0.90525,-0.064 l 0,1e-5 z m 30.62096,-0.29587 c 0.18849,-0.11944 0.19693,-0.2367 0.0384,-0.53298 -0.22259,-0.41593 -0.33642,-0.45179 -0.7009,-0.22084 -0.15204,0.0963 -0.19745,0.29492 -0.1219,0.53298 0.12728,0.40102 0.38542,0.47369 0.78444,0.22084 l 0,0 z m -29.37502,-0.70528 c 0.27794,-0.30712 0.27421,-0.34876 -0.0583,-0.64964 -0.30435,-0.27544 -0.40048,-0.28683 -0.67109,-0.0795 -0.17372,0.13309 -0.34884,0.26422 -0.38916,0.29141 -0.0976,0.0658 0.54073,0.76591 0.69831,0.76591 0.0678,0 0.25686,-0.14767 0.4202,-0.32816 l 0,0 z m 28.86552,-0.82423 c 0,-0.2566 -0.25115,-0.63286 -0.4209,-0.63059 -0.48875,0.007 -0.6929,0.29872 -0.4829,0.69111 0.16656,0.31122 0.26939,0.3474 0.55415,0.195 0.1923,-0.10292 0.34965,-0.2179 0.34965,-0.25552 z m -27.61982,-0.17794 c 0.26532,-0.20109 0.28928,-0.31731 0.12765,-0.61932 -0.23173,-0.43299 -0.58919,-0.47925 -0.89122,-0.11534 -0.15797,0.19035 -0.16199,0.35143 -0.0156,0.625 0.23005,0.42986 0.33685,0.44489 0.77916,0.10966 l 0,0 z m 26.9028,-1.2206 c -0.006,-0.49928 -0.29513,-0.70765 -0.68885,-0.49694 -0.43613,0.23341 -0.44566,0.26981 -0.19378,0.74045 0.14947,0.27928 0.25485,0.31086 0.53572,0.16055 0.1923,-0.10292 0.34841,-0.28474 0.34691,-0.40406 z m -25.52056,0.12525 c 0.16598,-0.19999 0.18172,-0.36686 0.0538,-0.56973 -0.24819,-0.39346 -0.45599,-0.42821 -0.83684,-0.13992 -0.27868,0.21095 -0.29146,0.29792 -0.091,0.61896 0.27855,0.44602 0.55534,0.47474 0.87407,0.0907 l 0,0 z m 1.29396,-1.04577 c 0.27964,-0.212 0.29192,-0.29774 0.0893,-0.62341 -0.26655,-0.42839 -0.64352,-0.42127 -0.91974,0.0174 -0.13582,0.21569 -0.12279,0.37533 0.0474,0.58036 0.28258,0.34049 0.36426,0.34317 0.78309,0.0257 l 0,0 z m 23.48884,-0.08 c 0.18848,-0.11944 0.19692,-0.2367 0.0384,-0.53298 -0.23341,-0.43614 -0.26981,-0.44566 -0.74045,-0.19379 -0.27928,0.14947 -0.31086,0.25485 -0.16055,0.53572 0.2008,0.3752 0.47588,0.43612 0.86264,0.19105 z m -44.10759,-0.57316 c 0.3093,-0.10782 0.56237,-0.29673 0.56237,-0.41978 0,-0.1818 -0.34104,-1.33679 -0.43542,-1.47464 -0.0747,-0.10913 -1.61669,0.45855 -1.60885,0.59231 0.005,0.0874 0.0743,0.4602 0.1538,0.82851 0.15804,0.73237 0.36948,0.80778 1.3281,0.4736 l 0,0 z m 21.98146,-0.41755 c 0.15798,-0.19035 0.162,-0.35143 0.0156,-0.625 -0.23005,-0.42985 -0.33684,-0.44488 -0.77915,-0.10965 -0.26532,0.20108 -0.28928,0.31731 -0.12764,0.61932 0.23172,0.43299 0.58919,0.47925 0.89121,0.11533 l -1e-5,0 z m 21.32435,-0.32862 c 0.19533,-0.14283 0.26761,-0.34284 0.1936,-0.53572 -0.22957,-0.59825 -1.08521,-0.22911 -0.89055,0.38421 0.13934,0.43902 0.26608,0.46657 0.69695,0.15151 z m -19.99783,-0.57275 c 0.37144,-0.28127 0.28714,-0.75029 -0.16612,-0.92423 -0.15717,-0.0603 -0.4071,0.0117 -0.55541,0.16 -0.22795,0.22796 -0.23298,0.32838 -0.0325,0.64942 0.2773,0.44402 0.31224,0.44934 0.75402,0.11481 l 0,0 z m -16.38795,-0.67604 c 0.0399,-0.0399 -0.0153,-0.34671 -0.12259,-0.68183 -0.1073,-0.33512 -0.22367,-0.70453 -0.2586,-0.82091 -0.0472,-0.15718 -0.23831,-0.16439 -0.7432,-0.0281 -0.96026,0.25931 -1.03073,0.37622 -0.77573,1.28698 l 0.22371,0.79903 0.80195,-0.24135 c 0.44107,-0.13275 0.83458,-0.27399 0.87446,-0.31387 z m 35.96376,-0.28115 c 0,-0.076 -0.10139,-0.27682 -0.22531,-0.4463 -0.19431,-0.26574 -0.27114,-0.27463 -0.55832,-0.0646 -0.27774,0.20308 -0.29837,0.30823 -0.12433,0.63342 0.17042,0.31845 0.27277,0.35562 0.55832,0.2028 0.1923,-0.10292 0.34964,-0.2493 0.34964,-0.32528 l 0,0 z m -18.20254,-0.0341 c 0.40802,-0.21837 0.41908,-0.32782 0.0786,-0.77759 -0.24356,-0.32171 -0.27728,-0.32314 -0.72365,-0.0307 -0.44838,0.29379 -0.45505,0.32127 -0.15761,0.64993 0.36228,0.40033 0.35366,0.39863 0.80267,0.15833 l 0,0 z m 1.66077,-1.20503 c 0.0469,-0.0759 -0.0535,-0.32197 -0.22317,-0.54687 -0.30077,-0.39874 -0.31831,-0.40084 -0.70582,-0.0843 -0.37211,0.30397 -0.37932,0.3502 -0.11346,0.72703 0.22592,0.32019 0.35271,0.3656 0.62056,0.22225 0.18515,-0.0991 0.375,-0.24224 0.42189,-0.31812 z m -13.15409,-0.32609 c 0.0301,-0.0903 -0.0461,-0.49434 -0.16936,-0.89794 l -0.22406,-0.73381 -0.85012,0.25125 c -0.79702,0.23555 -0.84279,0.28155 -0.73278,0.73636 0.30419,1.25759 0.32804,1.2788 1.16148,1.03271 0.41807,-0.12344 0.78475,-0.29829 0.81484,-0.38857 l 0,0 z m 28.9069,0.46597 c 0.12907,0 0.0759,-0.43585 -0.0839,-0.68808 -0.11978,-0.18904 -0.23632,-0.19712 -0.53525,-0.0372 -0.31713,0.16973 -0.34903,0.26633 -0.18758,0.56801 0.11706,0.21873 0.30157,0.32242 0.4633,0.26036 0.14782,-0.0567 0.30237,-0.10314 0.34345,-0.10314 z m -14.57765,-0.97073 c 0.15798,-0.19035 0.16199,-0.35143 0.0156,-0.625 -0.23005,-0.42985 -0.33685,-0.44488 -0.77916,-0.10965 -0.26532,0.20108 -0.28927,0.31731 -0.12764,0.61932 0.23173,0.43299 0.58919,0.47925 0.89122,0.11533 l -1e-5,0 z m 13.77348,-0.28677 c 0.27928,-0.14946 0.31086,-0.25485 0.16055,-0.53571 -0.2008,-0.37521 -0.47588,-0.43613 -0.86264,-0.19105 -0.18848,0.11944 -0.19692,0.2367 -0.0384,0.53298 0.23341,0.43613 0.26981,0.44566 0.74045,0.19378 z m -22.51401,-0.59682 c 0.85611,-0.25756 0.91912,-0.44081 0.51609,-1.50086 -0.14748,-0.38793 -0.23485,-0.42034 -0.83152,-0.30855 -1.05881,0.19839 -1.09752,0.25567 -0.81667,1.20837 0.13753,0.46652 0.26771,0.847 0.28929,0.84551 0.0216,-0.001 0.40085,-0.1115 0.84281,-0.24447 l 0,0 z m 10.0998,-0.0102 c 0.27223,-0.20215 0.30556,-0.32444 0.1553,-0.56973 -0.25979,-0.4241 -0.47726,-0.47166 -0.86388,-0.18895 -0.28578,0.20896 -0.29622,0.28719 -0.0838,0.6274 0.28686,0.45935 0.33892,0.46797 0.79233,0.13128 l 0,0 z m 11.76368,-0.69424 c 0.26971,-0.19722 0.28931,-0.30328 0.11592,-0.62727 -0.17043,-0.31844 -0.27277,-0.35562 -0.55833,-0.20279 -0.37225,0.19922 -0.41395,0.3349 -0.24125,0.78495 0.13214,0.34435 0.26265,0.35296 0.68366,0.0451 l 0,0 z m -10.33511,-0.19862 c 0.27223,-0.20215 0.30556,-0.32444 0.1553,-0.56973 -0.25979,-0.42409 -0.47726,-0.47166 -0.86388,-0.18895 -0.28578,0.20896 -0.29622,0.28719 -0.0837,0.62741 0.28686,0.45934 0.33892,0.46797 0.79233,0.13127 l 0,0 z m 9.70001,-0.87418 c 1.66126,-0.8143 2.67314,-2.70517 2.44157,-4.56248 -0.0687,-0.5513 -0.12305,-1.1558 -0.1207,-1.34334 0.005,-0.40579 -0.29242,-1.00871 -0.47422,-0.96105 -0.0707,0.0185 -0.44443,-0.2624 -0.83044,-0.6243 -1.00982,-0.94677 -1.94835,-1.25623 -3.52986,-1.16393 -0.99325,0.058 -1.34994,0.0149 -1.49672,-0.1805 -0.28752,-0.38285 -1.04432,0.0411 -0.81257,0.45521 0.12566,0.22455 -0.0152,0.47135 -0.6064,1.06256 -0.98002,0.98001 -1.41612,2.20621 -1.28784,3.62098 0.13753,1.51666 0.72463,2.49205 2.15055,3.57285 1.00042,0.75829 3.15337,0.81675 4.56663,0.124 z m -14.7232,-0.0385 c 0.35072,-0.0658 0.63768,-0.15545 0.63768,-0.19924 0,-0.43392 -0.4451,-1.66612 -0.60156,-1.66535 -0.33198,0.002 -1.5413,0.36572 -1.5413,0.46404 0,0.0501 0.091,0.45262 0.20229,0.89447 0.13411,0.53258 0.28031,0.77342 0.43375,0.71454 0.1273,-0.0488 0.51841,-0.14265 0.86914,-0.20845 l 0,-1e-5 z m 6.41901,0.0123 c 0.37144,-0.28128 0.28714,-0.75029 -0.16613,-0.92423 -0.15716,-0.0603 -0.4071,0.0117 -0.5554,0.16 -0.22796,0.22795 -0.23298,0.32838 -0.0325,0.64942 0.2773,0.44402 0.31224,0.44934 0.75402,0.11481 l 0,0 z m 1.43857,-0.86472 c 0.2263,-0.16549 0.28675,-0.35376 0.20066,-0.625 -0.13681,-0.43105 -0.31561,-0.47603 -0.81978,-0.20621 -0.28849,0.1544 -0.30943,0.24912 -0.13817,0.625 0.23201,0.5092 0.31282,0.53121 0.75729,0.20621 z m -1.46097,-0.93477 c 0.303,-0.0723 0.49107,-0.23628 0.49107,-0.42826 0,-0.36332 -0.35414,-1.43586 -0.47411,-1.43586 -0.15616,0 -1.66875,0.39971 -1.66875,0.44098 0,0.0228 0.0874,0.31459 0.1943,0.64845 0.10686,0.33385 0.227,0.71299 0.26698,0.84253 0.0402,0.13014 0.2129,0.19386 0.38606,0.14241 0.17235,-0.0512 0.53436,-0.14583 0.80445,-0.21025 l 0,0 z m 12.47928,-3.49953 c 0.74344,-0.22274 0.7768,-0.29769 0.52433,-1.17801 -0.15123,-0.52729 -0.12734,-0.58864 0.26786,-0.68783 0.43669,-0.1096 0.55468,-0.49617 0.28241,-0.92531 -0.10962,-0.17278 -0.26651,-0.18432 -0.62946,-0.0463 -0.40397,0.15359 -0.4536,0.23954 -0.30195,0.52292 0.14568,0.27219 0.11413,0.35674 -0.15985,0.42838 -0.1955,0.0511 -0.38202,-0.0168 -0.43656,-0.15886 -0.11904,-0.31021 -0.30588,-0.31351 -0.71734,-0.0126 -0.29375,0.2148 -0.3021,0.32459 -0.095,1.25 0.12487,0.55799 0.30537,1.01452 0.40112,1.01452 0.0957,0 0.48474,-0.0931 0.86444,-0.20684 l 0,0 z m 6.32377,-1.77819 c 0.73387,-0.18479 0.78327,-0.23359 0.67792,-0.66964 -0.24781,-1.02575 -0.4138,-1.29935 -0.73111,-1.20509 -0.1718,0.051 -0.53334,0.14551 -0.80343,0.20992 -0.30301,0.0723 -0.49108,0.23628 -0.49108,0.42826 0,0.36332 0.35415,1.43587 0.47411,1.43587 0.0451,0 0.43823,-0.0897 0.87359,-0.19932 l 0,0 z m -3.76993,-0.93089 c 0.26899,-0.19669 0.28905,-0.30376 0.11713,-0.625 -0.24134,-0.45095 -0.36562,-0.47405 -0.80837,-0.1503 -0.26899,0.19669 -0.28906,0.30376 -0.11714,0.625 0.24134,0.45094 0.36562,0.47405 0.80838,0.1503 z m 1.53574,-0.65891 c 0.28849,-0.1544 0.30943,-0.24912 0.13817,-0.625 -0.23201,-0.5092 -0.31282,-0.53121 -0.75729,-0.20621 -0.22631,0.16548 -0.28675,0.35376 -0.20066,0.625 0.1368,0.43105 0.31561,0.47603 0.81978,0.20621 z m 8.60971,-0.18456 c 0.3683,-0.10228 0.66964,-0.22697 0.66964,-0.27707 0,-0.0501 -0.091,-0.45262 -0.20229,-0.89447 -0.1341,-0.53258 -0.2803,-0.77343 -0.43375,-0.71455 -0.1273,0.0489 -0.51841,0.14266 -0.86914,0.20845 -0.35072,0.0658 -0.63768,0.15546 -0.63768,0.19926 0,0.0438 0.0899,0.43663 0.19977,0.87298 0.21611,0.85822 0.2703,0.88399 1.27345,0.6054 z m -21.63778,-0.53382 c 0.27929,-0.14947 0.31087,-0.25485 0.16055,-0.53572 -0.20652,-0.38588 -0.32467,-0.41878 -0.68474,-0.19063 -0.15203,0.0963 -0.19745,0.29492 -0.12189,0.53298 0.13815,0.43528 0.17401,0.44601 0.64608,0.19337 l 0,0 z m 14.60597,0.0254 c 0.17603,-0.1115 0.20116,-0.28224 0.0893,-0.60663 -0.14177,-0.41106 -0.19792,-0.43288 -0.62769,-0.24387 -0.39406,0.17331 -0.44661,0.27392 -0.31825,0.60937 0.16126,0.42145 0.44563,0.5015 0.85665,0.24113 l 0,0 z m 1.52849,-0.61188 c 0.3581,-0.26184 0.25114,-1.01318 -0.14423,-1.01318 -0.47483,0 -0.79866,0.43158 -0.63645,0.84822 0.1803,0.46313 0.32973,0.4947 0.78068,0.16496 z m -16.50561,-0.98533 c 0,-0.076 -0.10139,-0.27682 -0.22532,-0.4463 -0.19431,-0.26573 -0.27114,-0.27463 -0.55832,-0.0646 -0.27773,0.20308 -0.29837,0.30822 -0.12433,0.63342 0.17043,0.31844 0.27277,0.35562 0.55833,0.20279 0.1923,-0.10291 0.34964,-0.24929 0.34964,-0.32528 l 0,0 z m 18.20413,0.33935 c 0.20832,-0.1318 0.21776,-0.25073 0.0493,-0.62054 -0.18816,-0.41297 -0.25302,-0.43718 -0.66639,-0.24884 -0.27866,0.12697 -0.42029,0.30678 -0.36176,0.45931 0.0529,0.13786 0.0962,0.32444 0.0962,0.41462 0,0.21018 0.54778,0.20736 0.8827,-0.005 l 0,0 z m 10.19701,-0.0336 0.67473,-0.20216 -0.24003,-0.79756 c -0.13202,-0.43866 -0.27267,-0.8302 -0.31255,-0.87008 -0.0399,-0.0399 -0.34671,0.0153 -0.68183,0.12258 -0.33513,0.10731 -0.70685,0.22457 -0.82606,0.26058 -0.163,0.0492 -0.17017,0.21139 -0.0289,0.65391 0.10331,0.32365 0.21841,0.68889 0.25579,0.81166 0.0839,0.27551 0.29671,0.27938 1.15887,0.0211 l 0,0 z m -8.47938,-0.70857 c 0.0521,-0.0843 0.006,-0.31957 -0.10295,-0.52275 -0.14631,-0.27337 -0.29933,-0.3382 -0.58861,-0.24936 -0.5469,0.16796 -0.56252,0.19939 -0.34086,0.68589 0.14479,0.31777 0.29594,0.40735 0.5675,0.33634 0.20359,-0.0532 0.4128,-0.1658 0.46492,-0.25012 z m 1.48061,-0.49788 c 0.18848,-0.11944 0.19692,-0.2367 0.0384,-0.53298 -0.34314,-0.64115 -1.21744,-0.36862 -1.00138,0.31214 0.12449,0.39224 0.54159,0.48789 0.96302,0.22084 z m -22.19134,-0.19855 c 0.12907,0 0.0759,-0.43584 -0.0839,-0.68808 -0.11979,-0.18903 -0.23633,-0.19712 -0.53525,-0.0371 -0.31713,0.16972 -0.34904,0.26633 -0.18759,0.568 0.11706,0.21873 0.30158,0.32242 0.46331,0.26036 0.14782,-0.0567 0.30237,-0.10314 0.34344,-0.10314 z m 23.77333,-0.32162 c 0.30093,-0.19124 0.0762,-0.929 -0.28197,-0.92564 -0.51664,0.005 -0.78396,0.28576 -0.65589,0.68926 0.1217,0.38345 0.54037,0.48898 0.93786,0.23638 l 0,0 z m 11.82532,-0.0582 c 0.47013,-0.16389 0.55713,-0.2716 0.46878,-0.58036 -0.0597,-0.20852 -0.15659,-0.59916 -0.21538,-0.8681 -0.11207,-0.51268 -0.32077,-0.52916 -1.44701,-0.11429 -0.46666,0.1719 -0.46608,0.16868 -0.19495,1.07362 0.22485,0.75047 0.43078,0.82301 1.38856,0.48913 l 0,0 z m -10.21818,-0.47753 c 0.36651,-0.23292 0.0628,-0.92838 -0.40536,-0.92838 -0.50142,0 -0.67639,0.23863 -0.52492,0.71588 0.11509,0.36263 0.54096,0.45991 0.93028,0.2125 z m -26.18463,-0.40016 c 0.27928,-0.14947 0.31086,-0.25485 0.16055,-0.53572 -0.20081,-0.3752 -0.47588,-0.43612 -0.86264,-0.19105 -0.18849,0.11944 -0.19693,0.2367 -0.0384,0.53298 0.23341,0.43614 0.26981,0.44566 0.74045,0.19379 z m 27.98169,-0.25011 c 0.0275,-0.0275 -0.0282,-0.25567 -0.12376,-0.50705 -0.13105,-0.34467 -0.26467,-0.43327 -0.5435,-0.36035 -0.47825,0.12506 -0.59345,0.32675 -0.44813,0.78459 0.0946,0.29802 0.21053,0.34737 0.59151,0.25175 0.26063,-0.0654 0.49638,-0.14144 0.52388,-0.16894 l 0,0 z m 1.41723,-0.42116 c 0.30093,-0.19124 0.0762,-0.929 -0.28197,-0.92564 -0.49615,0.005 -0.72989,0.25796 -0.62128,0.67329 0.10392,0.39741 0.50059,0.50823 0.90325,0.25235 l 0,0 z m 13.67184,-1.0051 c -0.066,-1.07235 -0.18714,-1.16513 -1.15043,-0.88109 l -0.83351,0.24576 0.1736,0.66852 c 0.0955,0.36769 0.20422,0.76203 0.24163,0.87631 0.051,0.15571 0.2611,0.14966 0.83848,-0.0241 0.73831,-0.22222 0.76878,-0.25916 0.73023,-0.88538 l 0,0 z m -11.87072,0.5191 c 0.0293,-0.0237 -10e-4,-0.25961 -0.0674,-0.52423 -0.1038,-0.41358 -0.18647,-0.46465 -0.58868,-0.3637 -0.58106,0.14583 -0.54362,0.0881 -0.4324,0.66703 0.0816,0.42479 0.15606,0.47447 0.56459,0.37666 0.25882,-0.062 0.49458,-0.13206 0.52392,-0.15576 l 0,0 z m -31.85057,-0.14402 c 0.26971,-0.19721 0.28931,-0.30328 0.11591,-0.62727 -0.17042,-0.31844 -0.27277,-0.35561 -0.55832,-0.20279 -0.37225,0.19922 -0.41395,0.33491 -0.24125,0.78495 0.13214,0.34435 0.26265,0.35296 0.68366,0.0451 l 0,0 z m 33.28955,-0.2788 c 0.3774,-0.23913 0.0799,-0.91242 -0.40316,-0.91242 -0.52983,0 -0.60865,0.0978 -0.50706,0.6292 0.0863,0.45168 0.46058,0.56813 0.91022,0.28322 l 0,0 z m 1.80852,-0.71002 c -0.005,-0.53668 -0.27518,-0.7648 -0.76125,-0.6428 -0.32606,0.0818 -0.43439,0.20325 -0.36771,0.41214 0.052,0.16286 0.12066,0.38664 0.15261,0.49726 0.0904,0.31317 0.97951,0.0704 0.97635,-0.2666 z m 1.52059,-0.55954 c 0,-0.32727 -0.10745,-0.46169 -0.40258,-0.5036 -0.24148,-0.0343 -0.44564,0.055 -0.51018,0.22322 -0.1778,0.46333 0.0714,0.84628 0.51018,0.78398 0.29513,-0.0419 0.40258,-0.17633 0.40258,-0.5036 z m 12.99479,0.23229 c 0.64955,-0.13108 0.67995,-0.20597 0.45052,-1.10987 l -0.19462,-0.76675 -0.73249,0.11702 c -1.00145,0.15999 -1.09114,0.29736 -0.82193,1.25889 0.17821,0.63651 0.29515,0.79745 0.51702,0.71156 0.15769,-0.0611 0.50936,-0.15594 0.7815,-0.21085 l 0,0 z m -50.25247,-0.0342 c 0.24456,-0.15496 0.13586,-0.91241 -0.13094,-0.91241 -0.34773,0 -0.74719,0.47834 -0.63771,0.76363 0.12905,0.3363 0.3923,0.38725 0.76865,0.14878 l 0,0 z m 38.82374,-0.11779 c 0.43429,-0.16665 0.16383,-0.9732 -0.32634,-0.9732 -0.50441,0 -0.62958,0.17245 -0.49599,0.6833 0.10165,0.38871 0.34306,0.47382 0.82233,0.2899 l 0,0 z m 1.85531,-0.49664 c 0.0161,-0.0166 -0.0104,-0.23623 -0.0588,-0.48814 -0.0755,-0.39305 -0.16347,-0.44695 -0.61995,-0.37995 -0.37602,0.0552 -0.50263,0.15447 -0.43193,0.33869 0.055,0.14335 0.1,0.3833 0.1,0.53324 0,0.20817 0.11599,0.2435 0.49071,0.14945 0.26989,-0.0677 0.50386,-0.13672 0.51995,-0.15329 l 0,0 z m 1.64472,-0.40114 c 0.0363,-0.0323 0.0175,-0.25251 -0.042,-0.48928 -0.0868,-0.34589 -0.19631,-0.41362 -0.55716,-0.34464 -0.31888,0.061 -0.44911,0.20064 -0.44911,0.4817 0,0.21772 0.0544,0.45031 0.12101,0.51686 0.10685,0.10686 0.75048,-0.007 0.92722,-0.16464 z m -43.03805,-0.23443 c 0.28437,-0.18018 0.11523,-0.91389 -0.20972,-0.90968 -0.49393,0.006 -0.701,0.2968 -0.49119,0.68884 0.2226,0.41593 0.33642,0.45179 0.70091,0.22084 z m 44.63561,-0.42134 c 0.0508,-0.44124 8.9e-4,-0.49107 -0.49107,-0.49107 -0.55643,0 -0.66534,0.19963 -0.43557,0.7984 0.18657,0.4862 0.86107,0.26248 0.92664,-0.30733 z m 1.73405,-0.26749 c -0.15837,-0.63101 -0.17547,-0.64385 -0.68656,-0.51557 -0.3459,0.0868 -0.41363,0.19631 -0.34464,0.55716 0.0689,0.36056 0.19119,0.44911 0.62011,0.44911 0.49355,0 0.52487,-0.0374 0.41109,-0.4907 z m 11.42928,-0.52465 c -0.0682,-0.36339 -0.039,-0.59179 0.0756,-0.59179 0.10267,0 0.18667,-0.22716 0.18667,-0.50479 0,-0.45892 -0.0485,-0.49767 -0.5339,-0.42643 -0.29364,0.0431 -0.48979,0.14972 -0.43589,0.23693 0.0539,0.0872 0.0597,0.15857 0.0128,0.15857 -0.0469,0 -0.21233,0.0488 -0.36768,0.1084 -0.18822,0.0722 -0.28246,0.009 -0.28246,-0.19044 0,-0.22064 -0.12849,-0.28404 -0.49107,-0.24232 -0.38571,0.0444 -0.5032,0.16187 -0.54758,0.54758 -0.0404,0.35076 0.0234,0.49107 0.22321,0.49107 0.15385,0 0.27972,0.11531 0.27972,0.25623 0,0.14093 0.0746,0.45252 0.16584,0.69243 0.15881,0.41769 0.20105,0.42813 0.99579,0.24627 0.81715,-0.18699 0.82823,-0.19904 0.71892,-0.78171 l 0,0 z m -9.90166,0.65821 c 0.19838,0 0.21183,-0.54108 0.0209,-0.8415 -0.22647,-0.35638 -0.92837,-0.0644 -0.92837,0.38613 0,0.48628 0.17047,0.67526 0.49635,0.55021 0.13593,-0.0522 0.32093,-0.0948 0.41111,-0.0948 l 0,0 z m 1.77111,-0.71429 c 0,-0.47619 -0.0595,-0.53571 -0.53572,-0.53571 -0.34341,0 -0.53571,0.0909 -0.53571,0.25325 0,0.52504 0.23077,0.81818 0.64411,0.81818 0.35575,0 0.42732,-0.0897 0.42732,-0.53572 z m 1.75701,0.0882 c 0.0337,-0.0337 0.008,-0.22808 -0.0563,-0.43191 -0.0766,-0.24129 -0.2692,-0.3706 -0.55202,-0.3706 -0.36698,0 -0.4344,0.0861 -0.4344,0.55507 0,0.51626 0.0343,0.54646 0.49071,0.43191 0.26989,-0.0677 0.5183,-0.15075 0.55202,-0.18447 z M 249.496,143.17163 c -0.15934,-0.34971 -0.24732,-0.38262 -0.59703,-0.22328 -0.34971,0.15934 -0.38261,0.24733 -0.22327,0.59703 0.15933,0.34971 0.24732,0.38261 0.59703,0.22328 0.3497,-0.15934 0.38261,-0.24733 0.22327,-0.59703 l 0,0 z m 53.60771,0.0577 c 0,-0.41358 -0.0637,-0.50956 -0.28247,-0.42562 -0.15535,0.0596 -0.39642,0.1084 -0.53571,0.1084 -0.14627,0 -0.25325,0.17602 -0.25325,0.41666 0,0.54237 0.0955,0.62113 0.62919,0.5191 0.35316,-0.0675 0.44224,-0.1921 0.44224,-0.61854 z m 1.67471,-0.094 c -0.15176,-0.63257 -0.13019,-0.61626 -0.64434,-0.48722 -0.35102,0.0881 -0.42351,0.19853 -0.3574,0.5444 0.0651,0.34076 0.19419,0.43389 0.60125,0.43389 0.47492,0 0.50844,-0.0411 0.40049,-0.49107 l 0,0 z m 4.82854,0.0255 c 0.15535,-0.0596 0.28246,-0.30069 0.28246,-0.53572 0,-0.35575 -0.0897,-0.42732 -0.53571,-0.42732 -0.4762,0 -0.53572,0.0595 -0.53572,0.53571 0,0.54167 0.20362,0.65195 0.78897,0.42733 z m 1.8896,-0.6059 c 0,-0.44217 -0.0727,-0.53571 -0.41666,-0.53571 -0.54237,0 -0.62113,0.0955 -0.5191,0.62919 0.0618,0.32326 0.19905,0.44224 0.51015,0.44224 0.35386,0 0.42561,-0.0903 0.42561,-0.53572 z m -62.70477,-0.15859 c 0.18848,-0.11944 0.19692,-0.2367 0.0384,-0.53298 -0.22635,-0.42294 -0.22704,-0.42324 -0.62255,-0.27146 -0.28463,0.10921 -0.38415,0.62325 -0.16342,0.84398 0.16108,0.16108 0.45558,0.1455 0.74761,-0.0395 z"
       id="path5082"
       inkscape:connector-curvature="0" />
  </g>
</svg>
