<?xml version="1.0" encoding="UTF-8" standalone="no"?>
<!-- Created with Inkscape (http://www.inkscape.org/) -->

<svg
   xmlns:dc="http://purl.org/dc/elements/1.1/"
   xmlns:cc="http://creativecommons.org/ns#"
   xmlns:rdf="http://www.w3.org/1999/02/22-rdf-syntax-ns#"
   xmlns:svg="http://www.w3.org/2000/svg"
   xmlns="http://www.w3.org/2000/svg"
   xmlns:sodipodi="http://sodipodi.sourceforge.net/DTD/sodipodi-0.dtd"
   xmlns:inkscape="http://www.inkscape.org/namespaces/inkscape"
   width="744.09448819"
   height="1052.3622047"
   id="svg2"
   version="1.1"
   inkscape:version="0.48.2 r9819"
   sodipodi:docname="New document 1">
  <defs
     id="defs4" />
  <sodipodi:namedview
     id="base"
     pagecolor="#ffffff"
     bordercolor="#666666"
     borderopacity="1.0"
     inkscape:pageopacity="0.0"
     inkscape:pageshadow="2"
     inkscape:zoom="0.35"
     inkscape:cx="1285.0955"
     inkscape:cy="680.28105"
     inkscape:document-units="px"
     inkscape:current-layer="layer1"
     showgrid="false"
     inkscape:window-width="1920"
     inkscape:window-height="1018"
     inkscape:window-x="-8"
     inkscape:window-y="-8"
     inkscape:window-maximized="1" />
  <metadata
     id="metadata7">
    <rdf:RDF>
      <cc:Work
         rdf:about="">
        <dc:format>image/svg+xml</dc:format>
        <dc:type
           rdf:resource="http://purl.org/dc/dcmitype/StillImage" />
        <dc:title></dc:title>
      </cc:Work>
    </rdf:RDF>
  </metadata>
  <g
     inkscape:label="Layer 1"
     inkscape:groupmode="layer"
     id="layer1">
    <g
       id="layer1-7"
       inkscape:label="Layer 1"
       transform="translate(9.6473614,6.8304743)">
      <rect
         y="3.3384809"
         x="4.3355932"
         height="738.68091"
         width="735.83258"
         id="rect6386"
         style="fill:#ffff00;fill-opacity:1;stroke:#000000;stroke-width:2.14838576;stroke-miterlimit:4;stroke-opacity:1;stroke-dasharray:none;stroke-dashoffset:0" />
      <path
         transform="matrix(1.7187087,0,0,1.7187087,-137.99497,-109.43186)"
         d="m 511.42857,281.29074 c 0,118.14949 -95.77908,213.92857 -213.92857,213.92857 -118.14949,0 -213.928574,-95.77908 -213.928574,-213.92857 0,-118.14949 95.779084,-213.928573 213.928574,-213.928573 118.14949,0 213.92857,95.779083 213.92857,213.928573 z"
         sodipodi:ry="213.92857"
         sodipodi:rx="213.92857"
         sodipodi:cy="281.29074"
         sodipodi:cx="297.5"
         id="path5092"
         style="fill:none;stroke:#000000;stroke-width:1.25;stroke-miterlimit:4;stroke-opacity:1;stroke-dasharray:none;stroke-dashoffset:0"
         sodipodi:type="arc" />
      <path
         d="m 511.42857,281.29074 c 0,118.14949 -95.77908,213.92857 -213.92857,213.92857 -118.14949,0 -213.928574,-95.77908 -213.928574,-213.92857 0,-118.14949 95.779084,-213.928573 213.928574,-213.928573 118.14949,0 213.92857,95.779083 213.92857,213.928573 z"
         sodipodi:ry="213.92857"
         sodipodi:rx="213.92857"
         sodipodi:cy="281.29074"
         sodipodi:cx="297.5"
         id="path5092-4"
         style="fill:none;stroke:#000000;stroke-width:1.45333076;stroke-miterlimit:4;stroke-opacity:1;stroke-dasharray:none;stroke-dashoffset:0"
         sodipodi:type="arc"
         transform="matrix(1.4782498,0,0,1.4782498,-65.844611,-41.179152)" />
      <path
         d="m 511.42857,281.29074 c 0,118.14949 -95.77908,213.92857 -213.92857,213.92857 -118.14949,0 -213.928574,-95.77908 -213.928574,-213.92857 0,-118.14949 95.779084,-213.928573 213.928574,-213.928573 118.14949,0 213.92857,95.779083 213.92857,213.928573 z"
         sodipodi:ry="213.92857"
         sodipodi:rx="213.92857"
         sodipodi:cy="281.29074"
         sodipodi:cx="297.5"
         id="path5092-4-1"
         style="fill:none;stroke:#000000;stroke-width:1.79373801;stroke-miterlimit:4;stroke-opacity:1;stroke-dasharray:none;stroke-dashoffset:0"
         sodipodi:type="arc"
         transform="matrix(1.1977144,0,0,1.1977144,17.614663,37.732851)" />
      <path
         d="m 511.42857,281.29074 c 0,118.14949 -95.77908,213.92857 -213.92857,213.92857 -118.14949,0 -213.928574,-95.77908 -213.928574,-213.92857 0,-118.14949 95.779084,-213.928573 213.928574,-213.928573 118.14949,0 213.92857,95.779083 213.92857,213.928573 z"
         sodipodi:ry="213.92857"
         sodipodi:rx="213.92857"
         sodipodi:cy="281.29074"
         sodipodi:cx="297.5"
         id="path5092-4-1-1"
         style="fill:none;stroke:#000000;stroke-width:2.3570981;stroke-miterlimit:4;stroke-opacity:1;stroke-dasharray:none;stroke-dashoffset:0"
         sodipodi:type="arc"
         transform="matrix(0.91145376,0,0,0.91145376,102.77719,117.02767)" />
      <path
         d="m 511.42857,281.29074 c 0,118.14949 -95.77908,213.92857 -213.92857,213.92857 -118.14949,0 -213.928574,-95.77908 -213.928574,-213.92857 0,-118.14949 95.779084,-213.928573 213.928574,-213.928573 118.14949,0 213.92857,95.779083 213.92857,213.928573 z"
         sodipodi:ry="213.92857"
         sodipodi:rx="213.92857"
         sodipodi:cy="281.29074"
         sodipodi:cx="297.5"
         id="path5092-4-1-1-3"
         style="fill:none;stroke:#000000;stroke-width:3.40517259;stroke-miterlimit:4;stroke-opacity:1;stroke-dasharray:none;stroke-dashoffset:0"
         sodipodi:type="arc"
         transform="matrix(0.63091836,0,0,0.63091836,186.23647,194.71201)" />
      <path
         d="m 511.42857,281.29074 c 0,118.14949 -95.77908,213.92857 -213.92857,213.92857 -118.14949,0 -213.928574,-95.77908 -213.928574,-213.92857 0,-118.14949 95.779084,-213.928573 213.928574,-213.928573 118.14949,0 213.92857,95.779083 213.92857,213.928573 z"
         sodipodi:ry="213.92857"
         sodipodi:rx="213.92857"
         sodipodi:cy="281.29074"
         sodipodi:cx="297.5"
         id="path5092-4-1-1-3-8"
         style="fill:none;stroke:#000000;stroke-width:5.75536823;stroke-miterlimit:4;stroke-opacity:1;stroke-dasharray:none;stroke-dashoffset:0"
         sodipodi:type="arc"
         transform="matrix(0.37328381,0,0,0.37328381,262.88276,268.40989)" />
      <path
         inkscape:connector-curvature="0"
         id="path5692"
         d="m 373.58941,6.5777132 0,735.4899868"
         style="fill:none;stroke:#000000;stroke-width:1.71168578px;stroke-linecap:butt;stroke-linejoin:miter;stroke-opacity:1" />
      <path
         inkscape:connector-curvature="0"
         id="path5694"
         d="m 5.6783345,377.34347 735.5451855,0"
         style="fill:none;stroke:#000000;stroke-width:1.71649563px;stroke-linecap:butt;stroke-linejoin:miter;stroke-opacity:1" />
      <path
         inkscape:connector-curvature="0"
         id="path5696"
         d="M 114.67235,636.26052 635.79801,115.13487"
         style="fill:none;stroke:#000000;stroke-width:1.67914629px;stroke-linecap:butt;stroke-linejoin:miter;stroke-opacity:1" />
      <path
         inkscape:connector-curvature="0"
         id="path5698"
         d="M 632.11136,635.86158 111.85263,115.60283"
         style="fill:none;stroke:#000000;stroke-width:1.3550632px;stroke-linecap:butt;stroke-linejoin:miter;stroke-opacity:1" />
      <path
         inkscape:connector-curvature="0"
         id="path5700"
         d="M 233.19855,33.42763 510.16039,714.95684"
         style="fill:none;stroke:#000000;stroke-width:1.31244636px;stroke-linecap:butt;stroke-linejoin:miter;stroke-opacity:1" />
      <path
         inkscape:connector-curvature="0"
         id="path5702"
         d="M 218.55646,708.57292 529.88286,40.360134"
         style="fill:none;stroke:#000000;stroke-width:1.37453902px;stroke-linecap:butt;stroke-linejoin:miter;stroke-opacity:1" />
      <path
         inkscape:connector-curvature="0"
         id="path5704"
         d="M 33.329949,514.83059 714.17527,236.53636"
         style="fill:none;stroke:#000000;stroke-width:0.92945826px;stroke-linecap:butt;stroke-linejoin:miter;stroke-opacity:1" />
      <path
         inkscape:connector-curvature="0"
         id="path5706"
         d="M 28.370787,242.52712 714.95922,508.338"
         style="fill:none;stroke:#000000;stroke-width:0.9740265px;stroke-linecap:butt;stroke-linejoin:miter;stroke-opacity:1" />
      <path
         transform="matrix(1.306739,0,0,1.306739,-213.10343,-39.336348)"
         d="m 457.8125,212.51843 c 0,4.7462 -3.84755,8.59375 -8.59375,8.59375 -4.7462,0 -8.59375,-3.84755 -8.59375,-8.59375 0,-4.74619 3.84755,-8.59375 8.59375,-8.59375 4.7462,0 8.59375,3.84756 8.59375,8.59375 z"
         sodipodi:ry="8.59375"
         sodipodi:rx="8.59375"
         sodipodi:cy="212.51843"
         sodipodi:cx="449.21875"
         id="path5708"
         style="fill:#000000;fill-opacity:1;stroke:#000000;stroke-width:1.25;stroke-miterlimit:4;stroke-opacity:1;stroke-dasharray:none;stroke-dashoffset:0"
         sodipodi:type="arc" />
      <path
         transform="matrix(1.306739,0,0,1.306739,-213.33558,-97.055729)"
         d="m 457.8125,212.51843 c 0,4.7462 -3.84755,8.59375 -8.59375,8.59375 -4.7462,0 -8.59375,-3.84755 -8.59375,-8.59375 0,-4.74619 3.84755,-8.59375 8.59375,-8.59375 4.7462,0 8.59375,3.84756 8.59375,8.59375 z"
         sodipodi:ry="8.59375"
         sodipodi:rx="8.59375"
         sodipodi:cy="212.51843"
         sodipodi:cx="449.21875"
         id="path5708-7"
         style="fill:#000000;fill-opacity:1;stroke:#000000;stroke-width:1.25;stroke-miterlimit:4;stroke-opacity:1;stroke-dasharray:none;stroke-dashoffset:0"
         sodipodi:type="arc" />
      <path
         transform="matrix(1.306739,0,0,1.306739,-213.57295,-158.77072)"
         d="m 457.8125,212.51843 c 0,4.7462 -3.84755,8.59375 -8.59375,8.59375 -4.7462,0 -8.59375,-3.84755 -8.59375,-8.59375 0,-4.74619 3.84755,-8.59375 8.59375,-8.59375 4.7462,0 8.59375,3.84756 8.59375,8.59375 z"
         sodipodi:ry="8.59375"
         sodipodi:rx="8.59375"
         sodipodi:cy="212.51843"
         sodipodi:cx="449.21875"
         id="path5708-4"
         style="fill:#000000;fill-opacity:1;stroke:#000000;stroke-width:1.25;stroke-miterlimit:4;stroke-opacity:1;stroke-dasharray:none;stroke-dashoffset:0"
         sodipodi:type="arc" />
      <path
         transform="matrix(1.306739,0,0,1.306739,-214.04769,-217.63733)"
         d="m 457.8125,212.51843 c 0,4.7462 -3.84755,8.59375 -8.59375,8.59375 -4.7462,0 -8.59375,-3.84755 -8.59375,-8.59375 0,-4.74619 3.84755,-8.59375 8.59375,-8.59375 4.7462,0 8.59375,3.84756 8.59375,8.59375 z"
         sodipodi:ry="8.59375"
         sodipodi:rx="8.59375"
         sodipodi:cy="212.51843"
         sodipodi:cx="449.21875"
         id="path5708-2"
         style="fill:#000000;fill-opacity:1;stroke:#000000;stroke-width:1.25;stroke-miterlimit:4;stroke-opacity:1;stroke-dasharray:none;stroke-dashoffset:0"
         sodipodi:type="arc" />
      <path
         transform="matrix(1.306739,0,0,1.306739,-213.81032,-270.33244)"
         d="m 457.8125,212.51843 c 0,4.7462 -3.84755,8.59375 -8.59375,8.59375 -4.7462,0 -8.59375,-3.84755 -8.59375,-8.59375 0,-4.74619 3.84755,-8.59375 8.59375,-8.59375 4.7462,0 8.59375,3.84756 8.59375,8.59375 z"
         sodipodi:ry="8.59375"
         sodipodi:rx="8.59375"
         sodipodi:cy="212.51843"
         sodipodi:cx="449.21875"
         id="path5708-77"
         style="fill:#000000;fill-opacity:1;stroke:#000000;stroke-width:1.25;stroke-miterlimit:4;stroke-opacity:1;stroke-dasharray:none;stroke-dashoffset:0"
         sodipodi:type="arc" />
      <path
         transform="matrix(1.306739,0,0,1.306739,-213.50368,17.384575)"
         d="m 457.8125,212.51843 c 0,4.7462 -3.84755,8.59375 -8.59375,8.59375 -4.7462,0 -8.59375,-3.84755 -8.59375,-8.59375 0,-4.74619 3.84755,-8.59375 8.59375,-8.59375 4.7462,0 8.59375,3.84756 8.59375,8.59375 z"
         sodipodi:ry="8.59375"
         sodipodi:rx="8.59375"
         sodipodi:cy="212.51843"
         sodipodi:cx="449.21875"
         id="path5708-9"
         style="fill:#000000;fill-opacity:1;stroke:#000000;stroke-width:1.25;stroke-miterlimit:4;stroke-opacity:1;stroke-dasharray:none;stroke-dashoffset:0"
         sodipodi:type="arc" />
      <path
         transform="matrix(1.306739,0,0,1.306739,-178.44289,23.525865)"
         d="m 457.8125,212.51843 c 0,4.7462 -3.84755,8.59375 -8.59375,8.59375 -4.7462,0 -8.59375,-3.84755 -8.59375,-8.59375 0,-4.74619 3.84755,-8.59375 8.59375,-8.59375 4.7462,0 8.59375,3.84756 8.59375,8.59375 z"
         sodipodi:ry="8.59375"
         sodipodi:rx="8.59375"
         sodipodi:cy="212.51843"
         sodipodi:cx="449.21875"
         id="path5708-3"
         style="fill:#000000;fill-opacity:1;stroke:#000000;stroke-width:1.25;stroke-miterlimit:4;stroke-opacity:1;stroke-dasharray:none;stroke-dashoffset:0"
         sodipodi:type="arc" />
      <path
         transform="matrix(1.306739,0,0,1.306739,-154.46898,41.328267)"
         d="m 457.8125,212.51843 c 0,4.7462 -3.84755,8.59375 -8.59375,8.59375 -4.7462,0 -8.59375,-3.84755 -8.59375,-8.59375 0,-4.74619 3.84755,-8.59375 8.59375,-8.59375 4.7462,0 8.59375,3.84756 8.59375,8.59375 z"
         sodipodi:ry="8.59375"
         sodipodi:rx="8.59375"
         sodipodi:cy="212.51843"
         sodipodi:cx="449.21875"
         id="path5708-1"
         style="fill:#000000;fill-opacity:1;stroke:#000000;stroke-width:1.25;stroke-miterlimit:4;stroke-opacity:1;stroke-dasharray:none;stroke-dashoffset:0"
         sodipodi:type="arc" />
      <path
         transform="matrix(1.306739,0,0,1.306739,-139.2776,67.913186)"
         d="m 457.8125,212.51843 c 0,4.7462 -3.84755,8.59375 -8.59375,8.59375 -4.7462,0 -8.59375,-3.84755 -8.59375,-8.59375 0,-4.74619 3.84755,-8.59375 8.59375,-8.59375 4.7462,0 8.59375,3.84756 8.59375,8.59375 z"
         sodipodi:ry="8.59375"
         sodipodi:rx="8.59375"
         sodipodi:cy="212.51843"
         sodipodi:cx="449.21875"
         id="path5708-98"
         style="fill:#000000;fill-opacity:1;stroke:#000000;stroke-width:1.25;stroke-miterlimit:4;stroke-opacity:1;stroke-dasharray:none;stroke-dashoffset:0"
         sodipodi:type="arc" />
      <path
         transform="matrix(1.306739,0,0,1.306739,-133.34346,100.19487)"
         d="m 457.8125,212.51843 c 0,4.7462 -3.84755,8.59375 -8.59375,8.59375 -4.7462,0 -8.59375,-3.84755 -8.59375,-8.59375 0,-4.74619 3.84755,-8.59375 8.59375,-8.59375 4.7462,0 8.59375,3.84756 8.59375,8.59375 z"
         sodipodi:ry="8.59375"
         sodipodi:rx="8.59375"
         sodipodi:cy="212.51843"
         sodipodi:cx="449.21875"
         id="path5708-6"
         style="fill:#000000;fill-opacity:1;stroke:#000000;stroke-width:1.25;stroke-miterlimit:4;stroke-opacity:1;stroke-dasharray:none;stroke-dashoffset:0"
         sodipodi:type="arc" />
      <path
         transform="matrix(1.306739,0,0,1.306739,-139.51496,127.72925)"
         d="m 457.8125,212.51843 c 0,4.7462 -3.84755,8.59375 -8.59375,8.59375 -4.7462,0 -8.59375,-3.84755 -8.59375,-8.59375 0,-4.74619 3.84755,-8.59375 8.59375,-8.59375 4.7462,0 8.59375,3.84756 8.59375,8.59375 z"
         sodipodi:ry="8.59375"
         sodipodi:rx="8.59375"
         sodipodi:cy="212.51843"
         sodipodi:cx="449.21875"
         id="path5708-5"
         style="fill:#000000;fill-opacity:1;stroke:#000000;stroke-width:1.25;stroke-miterlimit:4;stroke-opacity:1;stroke-dasharray:none;stroke-dashoffset:0"
         sodipodi:type="arc" />
      <path
         transform="matrix(1.306739,0,0,1.306739,-158.74155,152.88998)"
         d="m 457.8125,212.51843 c 0,4.7462 -3.84755,8.59375 -8.59375,8.59375 -4.7462,0 -8.59375,-3.84755 -8.59375,-8.59375 0,-4.74619 3.84755,-8.59375 8.59375,-8.59375 4.7462,0 8.59375,3.84756 8.59375,8.59375 z"
         sodipodi:ry="8.59375"
         sodipodi:rx="8.59375"
         sodipodi:cy="212.51843"
         sodipodi:cx="449.21875"
         id="path5708-0"
         style="fill:#000000;fill-opacity:1;stroke:#000000;stroke-width:1.25;stroke-miterlimit:4;stroke-opacity:1;stroke-dasharray:none;stroke-dashoffset:0"
         sodipodi:type="arc" />
      <path
         transform="matrix(1.306739,0,0,1.306739,-184.61437,169.50555)"
         d="m 457.8125,212.51843 c 0,4.7462 -3.84755,8.59375 -8.59375,8.59375 -4.7462,0 -8.59375,-3.84755 -8.59375,-8.59375 0,-4.74619 3.84755,-8.59375 8.59375,-8.59375 4.7462,0 8.59375,3.84756 8.59375,8.59375 z"
         sodipodi:ry="8.59375"
         sodipodi:rx="8.59375"
         sodipodi:cy="212.51843"
         sodipodi:cx="449.21875"
         id="path5708-28"
         style="fill:#000000;fill-opacity:1;stroke:#000000;stroke-width:1.25;stroke-miterlimit:4;stroke-opacity:1;stroke-dasharray:none;stroke-dashoffset:0"
         sodipodi:type="arc" />
      <path
         transform="matrix(1.306739,0,0,1.306739,-213.57295,174.72759)"
         d="m 457.8125,212.51843 c 0,4.7462 -3.84755,8.59375 -8.59375,8.59375 -4.7462,0 -8.59375,-3.84755 -8.59375,-8.59375 0,-4.74619 3.84755,-8.59375 8.59375,-8.59375 4.7462,0 8.59375,3.84756 8.59375,8.59375 z"
         sodipodi:ry="8.59375"
         sodipodi:rx="8.59375"
         sodipodi:cy="212.51843"
         sodipodi:cx="449.21875"
         id="path5708-60"
         style="fill:#000000;fill-opacity:1;stroke:#000000;stroke-width:1.25;stroke-miterlimit:4;stroke-opacity:1;stroke-dasharray:none;stroke-dashoffset:0"
         sodipodi:type="arc" />
      <path
         transform="matrix(1.306739,0,0,1.306739,-245.85465,168.5561)"
         d="m 457.8125,212.51843 c 0,4.7462 -3.84755,8.59375 -8.59375,8.59375 -4.7462,0 -8.59375,-3.84755 -8.59375,-8.59375 0,-4.74619 3.84755,-8.59375 8.59375,-8.59375 4.7462,0 8.59375,3.84756 8.59375,8.59375 z"
         sodipodi:ry="8.59375"
         sodipodi:rx="8.59375"
         sodipodi:cy="212.51843"
         sodipodi:cx="449.21875"
         id="path5708-24"
         style="fill:#000000;fill-opacity:1;stroke:#000000;stroke-width:1.25;stroke-miterlimit:4;stroke-opacity:1;stroke-dasharray:none;stroke-dashoffset:0"
         sodipodi:type="arc" />
      <path
         transform="matrix(1.306739,0,0,1.306739,-267.9296,152.88998)"
         d="m 457.8125,212.51843 c 0,4.7462 -3.84755,8.59375 -8.59375,8.59375 -4.7462,0 -8.59375,-3.84755 -8.59375,-8.59375 0,-4.74619 3.84755,-8.59375 8.59375,-8.59375 4.7462,0 8.59375,3.84756 8.59375,8.59375 z"
         sodipodi:ry="8.59375"
         sodipodi:rx="8.59375"
         sodipodi:cy="212.51843"
         sodipodi:cx="449.21875"
         id="path5708-8"
         style="fill:#000000;fill-opacity:1;stroke:#000000;stroke-width:1.25;stroke-miterlimit:4;stroke-opacity:1;stroke-dasharray:none;stroke-dashoffset:0"
         sodipodi:type="arc" />
      <path
         transform="matrix(1.306739,0,0,1.306739,-286.68147,128.20398)"
         d="m 457.8125,212.51843 c 0,4.7462 -3.84755,8.59375 -8.59375,8.59375 -4.7462,0 -8.59375,-3.84755 -8.59375,-8.59375 0,-4.74619 3.84755,-8.59375 8.59375,-8.59375 4.7462,0 8.59375,3.84756 8.59375,8.59375 z"
         sodipodi:ry="8.59375"
         sodipodi:rx="8.59375"
         sodipodi:cy="212.51843"
         sodipodi:cx="449.21875"
         id="path5708-65"
         style="fill:#000000;fill-opacity:1;stroke:#000000;stroke-width:1.25;stroke-miterlimit:4;stroke-opacity:1;stroke-dasharray:none;stroke-dashoffset:0"
         sodipodi:type="arc" />
      <path
         transform="matrix(1.306739,0,0,1.306739,-293.09033,100.19487)"
         d="m 457.8125,212.51843 c 0,4.7462 -3.84755,8.59375 -8.59375,8.59375 -4.7462,0 -8.59375,-3.84755 -8.59375,-8.59375 0,-4.74619 3.84755,-8.59375 8.59375,-8.59375 4.7462,0 8.59375,3.84756 8.59375,8.59375 z"
         sodipodi:ry="8.59375"
         sodipodi:rx="8.59375"
         sodipodi:cy="212.51843"
         sodipodi:cx="449.21875"
         id="path5708-09"
         style="fill:#000000;fill-opacity:1;stroke:#000000;stroke-width:1.25;stroke-miterlimit:4;stroke-opacity:1;stroke-dasharray:none;stroke-dashoffset:0"
         sodipodi:type="arc" />
      <path
         transform="matrix(1.306739,0,0,1.306739,-288.58039,69.574744)"
         d="m 457.8125,212.51843 c 0,4.7462 -3.84755,8.59375 -8.59375,8.59375 -4.7462,0 -8.59375,-3.84755 -8.59375,-8.59375 0,-4.74619 3.84755,-8.59375 8.59375,-8.59375 4.7462,0 8.59375,3.84756 8.59375,8.59375 z"
         sodipodi:ry="8.59375"
         sodipodi:rx="8.59375"
         sodipodi:cy="212.51843"
         sodipodi:cx="449.21875"
         id="path5708-00"
         style="fill:#000000;fill-opacity:1;stroke:#000000;stroke-width:1.25;stroke-miterlimit:4;stroke-opacity:1;stroke-dasharray:none;stroke-dashoffset:0"
         sodipodi:type="arc" />
      <path
         transform="matrix(1.306739,0,0,1.306739,-271.96482,41.328267)"
         d="m 457.8125,212.51843 c 0,4.7462 -3.84755,8.59375 -8.59375,8.59375 -4.7462,0 -8.59375,-3.84755 -8.59375,-8.59375 0,-4.74619 3.84755,-8.59375 8.59375,-8.59375 4.7462,0 8.59375,3.84756 8.59375,8.59375 z"
         sodipodi:ry="8.59375"
         sodipodi:rx="8.59375"
         sodipodi:cy="212.51843"
         sodipodi:cx="449.21875"
         id="path5708-61"
         style="fill:#000000;fill-opacity:1;stroke:#000000;stroke-width:1.25;stroke-miterlimit:4;stroke-opacity:1;stroke-dasharray:none;stroke-dashoffset:0"
         sodipodi:type="arc" />
      <path
         transform="matrix(1.306739,0,0,1.306739,-245.3799,23.051136)"
         d="m 457.8125,212.51843 c 0,4.7462 -3.84755,8.59375 -8.59375,8.59375 -4.7462,0 -8.59375,-3.84755 -8.59375,-8.59375 0,-4.74619 3.84755,-8.59375 8.59375,-8.59375 4.7462,0 8.59375,3.84756 8.59375,8.59375 z"
         sodipodi:ry="8.59375"
         sodipodi:rx="8.59375"
         sodipodi:cy="212.51843"
         sodipodi:cx="449.21875"
         id="path5708-38"
         style="fill:#000000;fill-opacity:1;stroke:#000000;stroke-width:1.25;stroke-miterlimit:4;stroke-opacity:1;stroke-dasharray:none;stroke-dashoffset:0"
         sodipodi:type="arc" />
      <path
         transform="matrix(1.306739,0,0,1.306739,-154.46898,-26.558221)"
         d="m 457.8125,212.51843 c 0,4.7462 -3.84755,8.59375 -8.59375,8.59375 -4.7462,0 -8.59375,-3.84755 -8.59375,-8.59375 0,-4.74619 3.84755,-8.59375 8.59375,-8.59375 4.7462,0 8.59375,3.84756 8.59375,8.59375 z"
         sodipodi:ry="8.59375"
         sodipodi:rx="8.59375"
         sodipodi:cy="212.51843"
         sodipodi:cx="449.21875"
         id="path5708-93"
         style="fill:#000000;fill-opacity:1;stroke:#000000;stroke-width:1.25;stroke-miterlimit:4;stroke-opacity:1;stroke-dasharray:none;stroke-dashoffset:0"
         sodipodi:type="arc" />
      <path
         transform="matrix(1.306739,0,0,1.306739,-115.54106,2.1629848)"
         d="m 457.8125,212.51843 c 0,4.7462 -3.84755,8.59375 -8.59375,8.59375 -4.7462,0 -8.59375,-3.84755 -8.59375,-8.59375 0,-4.74619 3.84755,-8.59375 8.59375,-8.59375 4.7462,0 8.59375,3.84756 8.59375,8.59375 z"
         sodipodi:ry="8.59375"
         sodipodi:rx="8.59375"
         sodipodi:cy="212.51843"
         sodipodi:cx="449.21875"
         id="path5708-44"
         style="fill:#000000;fill-opacity:1;stroke:#000000;stroke-width:1.25;stroke-miterlimit:4;stroke-opacity:1;stroke-dasharray:none;stroke-dashoffset:0"
         sodipodi:type="arc" />
      <path
         transform="matrix(1.306739,0,0,1.306739,-87.769315,46.550304)"
         d="m 457.8125,212.51843 c 0,4.7462 -3.84755,8.59375 -8.59375,8.59375 -4.7462,0 -8.59375,-3.84755 -8.59375,-8.59375 0,-4.74619 3.84755,-8.59375 8.59375,-8.59375 4.7462,0 8.59375,3.84756 8.59375,8.59375 z"
         sodipodi:ry="8.59375"
         sodipodi:rx="8.59375"
         sodipodi:cy="212.51843"
         sodipodi:cx="449.21875"
         id="path5708-606"
         style="fill:#000000;fill-opacity:1;stroke:#000000;stroke-width:1.25;stroke-miterlimit:4;stroke-opacity:1;stroke-dasharray:none;stroke-dashoffset:0"
         sodipodi:type="arc" />
      <path
         transform="matrix(1.306739,0,0,1.306739,-78.037337,100.6696)"
         d="m 457.8125,212.51843 c 0,4.7462 -3.84755,8.59375 -8.59375,8.59375 -4.7462,0 -8.59375,-3.84755 -8.59375,-8.59375 0,-4.74619 3.84755,-8.59375 8.59375,-8.59375 4.7462,0 8.59375,3.84756 8.59375,8.59375 z"
         sodipodi:ry="8.59375"
         sodipodi:rx="8.59375"
         sodipodi:cy="212.51843"
         sodipodi:cx="449.21875"
         id="path5708-618"
         style="fill:#000000;fill-opacity:1;stroke:#000000;stroke-width:1.25;stroke-miterlimit:4;stroke-opacity:1;stroke-dasharray:none;stroke-dashoffset:0"
         sodipodi:type="arc" />
      <path
         transform="matrix(1.306739,0,0,1.306739,-88.718776,146.24375)"
         d="m 457.8125,212.51843 c 0,4.7462 -3.84755,8.59375 -8.59375,8.59375 -4.7462,0 -8.59375,-3.84755 -8.59375,-8.59375 0,-4.74619 3.84755,-8.59375 8.59375,-8.59375 4.7462,0 8.59375,3.84756 8.59375,8.59375 z"
         sodipodi:ry="8.59375"
         sodipodi:rx="8.59375"
         sodipodi:cy="212.51843"
         sodipodi:cx="449.21875"
         id="path5708-49"
         style="fill:#000000;fill-opacity:1;stroke:#000000;stroke-width:1.25;stroke-miterlimit:4;stroke-opacity:1;stroke-dasharray:none;stroke-dashoffset:0"
         sodipodi:type="arc" />
      <path
         transform="matrix(1.306739,0,0,1.306739,-121.94992,193.00471)"
         d="m 457.8125,212.51843 c 0,4.7462 -3.84755,8.59375 -8.59375,8.59375 -4.7462,0 -8.59375,-3.84755 -8.59375,-8.59375 0,-4.74619 3.84755,-8.59375 8.59375,-8.59375 4.7462,0 8.59375,3.84756 8.59375,8.59375 z"
         sodipodi:ry="8.59375"
         sodipodi:rx="8.59375"
         sodipodi:cy="212.51843"
         sodipodi:cx="449.21875"
         id="path5708-63"
         style="fill:#000000;fill-opacity:1;stroke:#000000;stroke-width:1.25;stroke-miterlimit:4;stroke-opacity:1;stroke-dasharray:none;stroke-dashoffset:0"
         sodipodi:type="arc" />
      <path
         transform="matrix(1.306739,0,0,1.306739,-164.67569,220.30173)"
         d="m 457.8125,212.51843 c 0,4.7462 -3.84755,8.59375 -8.59375,8.59375 -4.7462,0 -8.59375,-3.84755 -8.59375,-8.59375 0,-4.74619 3.84755,-8.59375 8.59375,-8.59375 4.7462,0 8.59375,3.84756 8.59375,8.59375 z"
         sodipodi:ry="8.59375"
         sodipodi:rx="8.59375"
         sodipodi:cy="212.51843"
         sodipodi:cx="449.21875"
         id="path5708-78"
         style="fill:#000000;fill-opacity:1;stroke:#000000;stroke-width:1.25;stroke-miterlimit:4;stroke-opacity:1;stroke-dasharray:none;stroke-dashoffset:0"
         sodipodi:type="arc" />
      <path
         transform="matrix(1.306739,0,0,1.306739,-214.04767,229.79635)"
         d="m 457.8125,212.51843 c 0,4.7462 -3.84755,8.59375 -8.59375,8.59375 -4.7462,0 -8.59375,-3.84755 -8.59375,-8.59375 0,-4.74619 3.84755,-8.59375 8.59375,-8.59375 4.7462,0 8.59375,3.84756 8.59375,8.59375 z"
         sodipodi:ry="8.59375"
         sodipodi:rx="8.59375"
         sodipodi:cy="212.51843"
         sodipodi:cx="449.21875"
         id="path5708-82"
         style="fill:#000000;fill-opacity:1;stroke:#000000;stroke-width:1.25;stroke-miterlimit:4;stroke-opacity:1;stroke-dasharray:none;stroke-dashoffset:0"
         sodipodi:type="arc" />
      <path
         transform="matrix(1.306739,0,0,1.306739,-269.82853,217.69071)"
         d="m 457.8125,212.51843 c 0,4.7462 -3.84755,8.59375 -8.59375,8.59375 -4.7462,0 -8.59375,-3.84755 -8.59375,-8.59375 0,-4.74619 3.84755,-8.59375 8.59375,-8.59375 4.7462,0 8.59375,3.84756 8.59375,8.59375 z"
         sodipodi:ry="8.59375"
         sodipodi:rx="8.59375"
         sodipodi:cy="212.51843"
         sodipodi:cx="449.21875"
         id="path5708-91"
         style="fill:#000000;fill-opacity:1;stroke:#000000;stroke-width:1.25;stroke-miterlimit:4;stroke-opacity:1;stroke-dasharray:none;stroke-dashoffset:0"
         sodipodi:type="arc" />
      <path
         transform="matrix(1.306739,0,0,1.306739,-305.67071,192.52999)"
         d="m 457.8125,212.51843 c 0,4.7462 -3.84755,8.59375 -8.59375,8.59375 -4.7462,0 -8.59375,-3.84755 -8.59375,-8.59375 0,-4.74619 3.84755,-8.59375 8.59375,-8.59375 4.7462,0 8.59375,3.84756 8.59375,8.59375 z"
         sodipodi:ry="8.59375"
         sodipodi:rx="8.59375"
         sodipodi:cy="212.51843"
         sodipodi:cx="449.21875"
         id="path5708-35"
         style="fill:#000000;fill-opacity:1;stroke:#000000;stroke-width:1.25;stroke-miterlimit:4;stroke-opacity:1;stroke-dasharray:none;stroke-dashoffset:0"
         sodipodi:type="arc" />
      <path
         transform="matrix(1.306739,0,0,1.306739,-336.5282,149.3295)"
         d="m 457.8125,212.51843 c 0,4.7462 -3.84755,8.59375 -8.59375,8.59375 -4.7462,0 -8.59375,-3.84755 -8.59375,-8.59375 0,-4.74619 3.84755,-8.59375 8.59375,-8.59375 4.7462,0 8.59375,3.84756 8.59375,8.59375 z"
         sodipodi:ry="8.59375"
         sodipodi:rx="8.59375"
         sodipodi:cy="212.51843"
         sodipodi:cx="449.21875"
         id="path5708-984"
         style="fill:#000000;fill-opacity:1;stroke:#000000;stroke-width:1.25;stroke-miterlimit:4;stroke-opacity:1;stroke-dasharray:none;stroke-dashoffset:0"
         sodipodi:type="arc" />
      <path
         transform="matrix(1.306739,0,0,1.306739,-347.44702,100.19487)"
         d="m 457.8125,212.51843 c 0,4.7462 -3.84755,8.59375 -8.59375,8.59375 -4.7462,0 -8.59375,-3.84755 -8.59375,-8.59375 0,-4.74619 3.84755,-8.59375 8.59375,-8.59375 4.7462,0 8.59375,3.84756 8.59375,8.59375 z"
         sodipodi:ry="8.59375"
         sodipodi:rx="8.59375"
         sodipodi:cy="212.51843"
         sodipodi:cx="449.21875"
         id="path5708-07"
         style="fill:#000000;fill-opacity:1;stroke:#000000;stroke-width:1.25;stroke-miterlimit:4;stroke-opacity:1;stroke-dasharray:none;stroke-dashoffset:0"
         sodipodi:type="arc" />
      <path
         transform="matrix(1.306739,0,0,1.306739,-340.56342,48.923957)"
         d="m 457.8125,212.51843 c 0,4.7462 -3.84755,8.59375 -8.59375,8.59375 -4.7462,0 -8.59375,-3.84755 -8.59375,-8.59375 0,-4.74619 3.84755,-8.59375 8.59375,-8.59375 4.7462,0 8.59375,3.84756 8.59375,8.59375 z"
         sodipodi:ry="8.59375"
         sodipodi:rx="8.59375"
         sodipodi:cy="212.51843"
         sodipodi:cx="449.21875"
         id="path5708-636"
         style="fill:#000000;fill-opacity:1;stroke:#000000;stroke-width:1.25;stroke-miterlimit:4;stroke-opacity:1;stroke-dasharray:none;stroke-dashoffset:0"
         sodipodi:type="arc" />
      <path
         transform="matrix(1.306739,0,0,1.306739,-311.60484,2.6377165)"
         d="m 457.8125,212.51843 c 0,4.7462 -3.84755,8.59375 -8.59375,8.59375 -4.7462,0 -8.59375,-3.84755 -8.59375,-8.59375 0,-4.74619 3.84755,-8.59375 8.59375,-8.59375 4.7462,0 8.59375,3.84756 8.59375,8.59375 z"
         sodipodi:ry="8.59375"
         sodipodi:rx="8.59375"
         sodipodi:cy="212.51843"
         sodipodi:cx="449.21875"
         id="path5708-15"
         style="fill:#000000;fill-opacity:1;stroke:#000000;stroke-width:1.25;stroke-miterlimit:4;stroke-opacity:1;stroke-dasharray:none;stroke-dashoffset:0"
         sodipodi:type="arc" />
      <path
         transform="matrix(1.306739,0,0,1.306739,-266.50541,-28.457144)"
         d="m 457.8125,212.51843 c 0,4.7462 -3.84755,8.59375 -8.59375,8.59375 -4.7462,0 -8.59375,-3.84755 -8.59375,-8.59375 0,-4.74619 3.84755,-8.59375 8.59375,-8.59375 4.7462,0 8.59375,3.84756 8.59375,8.59375 z"
         sodipodi:ry="8.59375"
         sodipodi:rx="8.59375"
         sodipodi:cy="212.51843"
         sodipodi:cx="449.21875"
         id="path5708-42"
         style="fill:#000000;fill-opacity:1;stroke:#000000;stroke-width:1.25;stroke-miterlimit:4;stroke-opacity:1;stroke-dasharray:none;stroke-dashoffset:0"
         sodipodi:type="arc" />
      <path
         transform="matrix(1.306739,0,0,1.306739,-289.52987,-84.475366)"
         d="m 457.8125,212.51843 c 0,4.7462 -3.84755,8.59375 -8.59375,8.59375 -4.7462,0 -8.59375,-3.84755 -8.59375,-8.59375 0,-4.74619 3.84755,-8.59375 8.59375,-8.59375 4.7462,0 8.59375,3.84756 8.59375,8.59375 z"
         sodipodi:ry="8.59375"
         sodipodi:rx="8.59375"
         sodipodi:cy="212.51843"
         sodipodi:cx="449.21875"
         id="path5708-097"
         style="fill:#000000;fill-opacity:1;stroke:#000000;stroke-width:1.25;stroke-miterlimit:4;stroke-opacity:1;stroke-dasharray:none;stroke-dashoffset:0"
         sodipodi:type="arc" />
      <path
         transform="matrix(1.306739,0,0,1.306739,-354.56795,-39.613316)"
         d="m 457.8125,212.51843 c 0,4.7462 -3.84755,8.59375 -8.59375,8.59375 -4.7462,0 -8.59375,-3.84755 -8.59375,-8.59375 0,-4.74619 3.84755,-8.59375 8.59375,-8.59375 4.7462,0 8.59375,3.84756 8.59375,8.59375 z"
         sodipodi:ry="8.59375"
         sodipodi:rx="8.59375"
         sodipodi:cy="212.51843"
         sodipodi:cx="449.21875"
         id="path5708-37"
         style="fill:#000000;fill-opacity:1;stroke:#000000;stroke-width:1.25;stroke-miterlimit:4;stroke-opacity:1;stroke-dasharray:none;stroke-dashoffset:0"
         sodipodi:type="arc" />
      <path
         transform="matrix(1.306739,0,0,1.306739,-396.81899,28.510538)"
         d="m 457.8125,212.51843 c 0,4.7462 -3.84755,8.59375 -8.59375,8.59375 -4.7462,0 -8.59375,-3.84755 -8.59375,-8.59375 0,-4.74619 3.84755,-8.59375 8.59375,-8.59375 4.7462,0 8.59375,3.84756 8.59375,8.59375 z"
         sodipodi:ry="8.59375"
         sodipodi:rx="8.59375"
         sodipodi:cy="212.51843"
         sodipodi:cx="449.21875"
         id="path5708-26"
         style="fill:#000000;fill-opacity:1;stroke:#000000;stroke-width:1.25;stroke-miterlimit:4;stroke-opacity:1;stroke-dasharray:none;stroke-dashoffset:0"
         sodipodi:type="arc" />
      <path
         transform="matrix(1.306739,0,0,1.306739,-408.68725,99.482776)"
         d="m 457.8125,212.51843 c 0,4.7462 -3.84755,8.59375 -8.59375,8.59375 -4.7462,0 -8.59375,-3.84755 -8.59375,-8.59375 0,-4.74619 3.84755,-8.59375 8.59375,-8.59375 4.7462,0 8.59375,3.84756 8.59375,8.59375 z"
         sodipodi:ry="8.59375"
         sodipodi:rx="8.59375"
         sodipodi:cy="212.51843"
         sodipodi:cx="449.21875"
         id="path5708-01"
         style="fill:#000000;fill-opacity:1;stroke:#000000;stroke-width:1.25;stroke-miterlimit:4;stroke-opacity:1;stroke-dasharray:none;stroke-dashoffset:0"
         sodipodi:type="arc" />
      <path
         transform="matrix(1.306739,0,0,1.306739,-393.02116,172.11657)"
         d="m 457.8125,212.51843 c 0,4.7462 -3.84755,8.59375 -8.59375,8.59375 -4.7462,0 -8.59375,-3.84755 -8.59375,-8.59375 0,-4.74619 3.84755,-8.59375 8.59375,-8.59375 4.7462,0 8.59375,3.84756 8.59375,8.59375 z"
         sodipodi:ry="8.59375"
         sodipodi:rx="8.59375"
         sodipodi:cy="212.51843"
         sodipodi:cx="449.21875"
         id="path5708-657"
         style="fill:#000000;fill-opacity:1;stroke:#000000;stroke-width:1.25;stroke-miterlimit:4;stroke-opacity:1;stroke-dasharray:none;stroke-dashoffset:0"
         sodipodi:type="arc" />
      <path
         transform="matrix(1.306739,0,0,1.306739,-452.59986,6.4355612)"
         d="m 457.8125,212.51843 c 0,4.7462 -3.84755,8.59375 -8.59375,8.59375 -4.7462,0 -8.59375,-3.84755 -8.59375,-8.59375 0,-4.74619 3.84755,-8.59375 8.59375,-8.59375 4.7462,0 8.59375,3.84756 8.59375,8.59375 z"
         sodipodi:ry="8.59375"
         sodipodi:rx="8.59375"
         sodipodi:cy="212.51843"
         sodipodi:cx="449.21875"
         id="path5708-54"
         style="fill:#000000;fill-opacity:1;stroke:#000000;stroke-width:1.25;stroke-miterlimit:4;stroke-opacity:1;stroke-dasharray:none;stroke-dashoffset:0"
         sodipodi:type="arc" />
      <path
         transform="matrix(1.306739,0,0,1.306739,-468.50333,99.245412)"
         d="m 457.8125,212.51843 c 0,4.7462 -3.84755,8.59375 -8.59375,8.59375 -4.7462,0 -8.59375,-3.84755 -8.59375,-8.59375 0,-4.74619 3.84755,-8.59375 8.59375,-8.59375 4.7462,0 8.59375,3.84756 8.59375,8.59375 z"
         sodipodi:ry="8.59375"
         sodipodi:rx="8.59375"
         sodipodi:cy="212.51843"
         sodipodi:cx="449.21875"
         id="path5708-12"
         style="fill:#000000;fill-opacity:1;stroke:#000000;stroke-width:1.25;stroke-miterlimit:4;stroke-opacity:1;stroke-dasharray:none;stroke-dashoffset:0"
         sodipodi:type="arc" />
      <path
         transform="matrix(1.306739,0,0,1.306739,-450.70093,193.95418)"
         d="m 457.8125,212.51843 c 0,4.7462 -3.84755,8.59375 -8.59375,8.59375 -4.7462,0 -8.59375,-3.84755 -8.59375,-8.59375 0,-4.74619 3.84755,-8.59375 8.59375,-8.59375 4.7462,0 8.59375,3.84756 8.59375,8.59375 z"
         sodipodi:ry="8.59375"
         sodipodi:rx="8.59375"
         sodipodi:cy="212.51843"
         sodipodi:cx="449.21875"
         id="path5708-001"
         style="fill:#000000;fill-opacity:1;stroke:#000000;stroke-width:1.25;stroke-miterlimit:4;stroke-opacity:1;stroke-dasharray:none;stroke-dashoffset:0"
         sodipodi:type="arc" />
      <path
         transform="matrix(1.306739,0,0,1.306739,-506.48179,217.92809)"
         d="m 457.8125,212.51843 c 0,4.7462 -3.84755,8.59375 -8.59375,8.59375 -4.7462,0 -8.59375,-3.84755 -8.59375,-8.59375 0,-4.74619 3.84755,-8.59375 8.59375,-8.59375 4.7462,0 8.59375,3.84756 8.59375,8.59375 z"
         sodipodi:ry="8.59375"
         sodipodi:rx="8.59375"
         sodipodi:cy="212.51843"
         sodipodi:cx="449.21875"
         id="path5708-46"
         style="fill:#000000;fill-opacity:1;stroke:#000000;stroke-width:1.25;stroke-miterlimit:4;stroke-opacity:1;stroke-dasharray:none;stroke-dashoffset:0"
         sodipodi:type="arc" />
      <path
         transform="matrix(1.306739,0,0,1.306739,-529.50622,100.19487)"
         d="m 457.8125,212.51843 c 0,4.7462 -3.84755,8.59375 -8.59375,8.59375 -4.7462,0 -8.59375,-3.84755 -8.59375,-8.59375 0,-4.74619 3.84755,-8.59375 8.59375,-8.59375 4.7462,0 8.59375,3.84756 8.59375,8.59375 z"
         sodipodi:ry="8.59375"
         sodipodi:rx="8.59375"
         sodipodi:cy="212.51843"
         sodipodi:cx="449.21875"
         id="path5708-071"
         style="fill:#000000;fill-opacity:1;stroke:#000000;stroke-width:1.25;stroke-miterlimit:4;stroke-opacity:1;stroke-dasharray:none;stroke-dashoffset:0"
         sodipodi:type="arc" />
      <path
         transform="matrix(1.306739,0,0,1.306739,-508.61806,-14.689954)"
         d="m 457.8125,212.51843 c 0,4.7462 -3.84755,8.59375 -8.59375,8.59375 -4.7462,0 -8.59375,-3.84755 -8.59375,-8.59375 0,-4.74619 3.84755,-8.59375 8.59375,-8.59375 4.7462,0 8.59375,3.84756 8.59375,8.59375 z"
         sodipodi:ry="8.59375"
         sodipodi:rx="8.59375"
         sodipodi:cy="212.51843"
         sodipodi:cx="449.21875"
         id="path5708-777"
         style="fill:#000000;fill-opacity:1;stroke:#000000;stroke-width:1.25;stroke-miterlimit:4;stroke-opacity:1;stroke-dasharray:none;stroke-dashoffset:0"
         sodipodi:type="arc" />
      <path
         transform="matrix(1.306739,0,0,1.306739,-395.63217,-82.339076)"
         d="m 457.8125,212.51843 c 0,4.7462 -3.84755,8.59375 -8.59375,8.59375 -4.7462,0 -8.59375,-3.84755 -8.59375,-8.59375 0,-4.74619 3.84755,-8.59375 8.59375,-8.59375 4.7462,0 8.59375,3.84756 8.59375,8.59375 z"
         sodipodi:ry="8.59375"
         sodipodi:rx="8.59375"
         sodipodi:cy="212.51843"
         sodipodi:cx="449.21875"
         id="path5708-73"
         style="fill:#000000;fill-opacity:1;stroke:#000000;stroke-width:1.25;stroke-miterlimit:4;stroke-opacity:1;stroke-dasharray:none;stroke-dashoffset:0"
         sodipodi:type="arc" />
      <path
         transform="matrix(1.306739,0,0,1.306739,-439.07004,-125.53957)"
         d="m 457.8125,212.51843 c 0,4.7462 -3.84755,8.59375 -8.59375,8.59375 -4.7462,0 -8.59375,-3.84755 -8.59375,-8.59375 0,-4.74619 3.84755,-8.59375 8.59375,-8.59375 4.7462,0 8.59375,3.84756 8.59375,8.59375 z"
         sodipodi:ry="8.59375"
         sodipodi:rx="8.59375"
         sodipodi:cy="212.51843"
         sodipodi:cx="449.21875"
         id="path5708-359"
         style="fill:#000000;fill-opacity:1;stroke:#000000;stroke-width:1.25;stroke-miterlimit:4;stroke-opacity:1;stroke-dasharray:none;stroke-dashoffset:0"
         sodipodi:type="arc" />
      <path
         transform="matrix(1.306739,0,0,1.306739,-476.33638,-161.14437)"
         d="m 457.8125,212.51843 c 0,4.7462 -3.84755,8.59375 -8.59375,8.59375 -4.7462,0 -8.59375,-3.84755 -8.59375,-8.59375 0,-4.74619 3.84755,-8.59375 8.59375,-8.59375 4.7462,0 8.59375,3.84756 8.59375,8.59375 z"
         sodipodi:ry="8.59375"
         sodipodi:rx="8.59375"
         sodipodi:cy="212.51843"
         sodipodi:cx="449.21875"
         id="path5708-981"
         style="fill:#000000;fill-opacity:1;stroke:#000000;stroke-width:1.25;stroke-miterlimit:4;stroke-opacity:1;stroke-dasharray:none;stroke-dashoffset:0"
         sodipodi:type="arc" />
      <path
         transform="matrix(1.306739,0,0,1.306739,-311.36747,-140.49359)"
         d="m 457.8125,212.51843 c 0,4.7462 -3.84755,8.59375 -8.59375,8.59375 -4.7462,0 -8.59375,-3.84755 -8.59375,-8.59375 0,-4.74619 3.84755,-8.59375 8.59375,-8.59375 4.7462,0 8.59375,3.84756 8.59375,8.59375 z"
         sodipodi:ry="8.59375"
         sodipodi:rx="8.59375"
         sodipodi:cy="212.51843"
         sodipodi:cx="449.21875"
         id="path5708-826"
         style="fill:#000000;fill-opacity:1;stroke:#000000;stroke-width:1.25;stroke-miterlimit:4;stroke-opacity:1;stroke-dasharray:none;stroke-dashoffset:0"
         sodipodi:type="arc" />
      <path
         transform="matrix(1.306739,0,0,1.306739,-334.62928,-196.03708)"
         d="m 457.8125,212.51843 c 0,4.7462 -3.84755,8.59375 -8.59375,8.59375 -4.7462,0 -8.59375,-3.84755 -8.59375,-8.59375 0,-4.74619 3.84755,-8.59375 8.59375,-8.59375 4.7462,0 8.59375,3.84756 8.59375,8.59375 z"
         sodipodi:ry="8.59375"
         sodipodi:rx="8.59375"
         sodipodi:cy="212.51843"
         sodipodi:cx="449.21875"
         id="path5708-603"
         style="fill:#000000;fill-opacity:1;stroke:#000000;stroke-width:1.25;stroke-miterlimit:4;stroke-opacity:1;stroke-dasharray:none;stroke-dashoffset:0"
         sodipodi:type="arc" />
      <path
         transform="matrix(1.306739,0,0,1.306739,-353.14376,-244.22224)"
         d="m 457.8125,212.51843 c 0,4.7462 -3.84755,8.59375 -8.59375,8.59375 -4.7462,0 -8.59375,-3.84755 -8.59375,-8.59375 0,-4.74619 3.84755,-8.59375 8.59375,-8.59375 4.7462,0 8.59375,3.84756 8.59375,8.59375 z"
         sodipodi:ry="8.59375"
         sodipodi:rx="8.59375"
         sodipodi:cy="212.51843"
         sodipodi:cx="449.21875"
         id="path5708-80"
         style="fill:#000000;fill-opacity:1;stroke:#000000;stroke-width:1.25;stroke-miterlimit:4;stroke-opacity:1;stroke-dasharray:none;stroke-dashoffset:0"
         sodipodi:type="arc" />
      <path
         transform="matrix(1.306739,0,0,1.306739,-57.623916,-236.62657)"
         d="m 457.8125,212.51843 c 0,4.7462 -3.84755,8.59375 -8.59375,8.59375 -4.7462,0 -8.59375,-3.84755 -8.59375,-8.59375 0,-4.74619 3.84755,-8.59375 8.59375,-8.59375 4.7462,0 8.59375,3.84756 8.59375,8.59375 z"
         sodipodi:ry="8.59375"
         sodipodi:rx="8.59375"
         sodipodi:cy="212.51843"
         sodipodi:cx="449.21875"
         id="path5708-125"
         style="fill:#000000;fill-opacity:1;stroke:#000000;stroke-width:1.25;stroke-miterlimit:4;stroke-opacity:1;stroke-dasharray:none;stroke-dashoffset:0"
         sodipodi:type="arc" />
      <path
         transform="matrix(1.306739,0,0,1.306739,-79.461528,-189.39085)"
         d="m 457.8125,212.51843 c 0,4.7462 -3.84755,8.59375 -8.59375,8.59375 -4.7462,0 -8.59375,-3.84755 -8.59375,-8.59375 0,-4.74619 3.84755,-8.59375 8.59375,-8.59375 4.7462,0 8.59375,3.84756 8.59375,8.59375 z"
         sodipodi:ry="8.59375"
         sodipodi:rx="8.59375"
         sodipodi:cy="212.51843"
         sodipodi:cx="449.21875"
         id="path5708-094"
         style="fill:#000000;fill-opacity:1;stroke:#000000;stroke-width:1.25;stroke-miterlimit:4;stroke-opacity:1;stroke-dasharray:none;stroke-dashoffset:0"
         sodipodi:type="arc" />
      <path
         transform="matrix(1.306739,0,0,1.306739,-105.80908,-135.03419)"
         d="m 457.8125,212.51843 c 0,4.7462 -3.84755,8.59375 -8.59375,8.59375 -4.7462,0 -8.59375,-3.84755 -8.59375,-8.59375 0,-4.74619 3.84755,-8.59375 8.59375,-8.59375 4.7462,0 8.59375,3.84756 8.59375,8.59375 z"
         sodipodi:ry="8.59375"
         sodipodi:rx="8.59375"
         sodipodi:cy="212.51843"
         sodipodi:cx="449.21875"
         id="path5708-783"
         style="fill:#000000;fill-opacity:1;stroke:#000000;stroke-width:1.25;stroke-miterlimit:4;stroke-opacity:1;stroke-dasharray:none;stroke-dashoffset:0"
         sodipodi:type="arc" />
      <path
         transform="matrix(1.306739,0,0,1.306739,-130.49508,-79.965425)"
         d="m 457.8125,212.51843 c 0,4.7462 -3.84755,8.59375 -8.59375,8.59375 -4.7462,0 -8.59375,-3.84755 -8.59375,-8.59375 0,-4.74619 3.84755,-8.59375 8.59375,-8.59375 4.7462,0 8.59375,3.84756 8.59375,8.59375 z"
         sodipodi:ry="8.59375"
         sodipodi:rx="8.59375"
         sodipodi:cy="212.51843"
         sodipodi:cx="449.21875"
         id="path5708-51"
         style="fill:#000000;fill-opacity:1;stroke:#000000;stroke-width:1.25;stroke-miterlimit:4;stroke-opacity:1;stroke-dasharray:none;stroke-dashoffset:0"
         sodipodi:type="arc" />
      <path
         transform="matrix(1.306739,0,0,1.306739,-73.76476,-41.037507)"
         d="m 457.8125,212.51843 c 0,4.7462 -3.84755,8.59375 -8.59375,8.59375 -4.7462,0 -8.59375,-3.84755 -8.59375,-8.59375 0,-4.74619 3.84755,-8.59375 8.59375,-8.59375 4.7462,0 8.59375,3.84756 8.59375,8.59375 z"
         sodipodi:ry="8.59375"
         sodipodi:rx="8.59375"
         sodipodi:cy="212.51843"
         sodipodi:cx="449.21875"
         id="path5708-20"
         style="fill:#000000;fill-opacity:1;stroke:#000000;stroke-width:1.25;stroke-miterlimit:4;stroke-opacity:1;stroke-dasharray:none;stroke-dashoffset:0"
         sodipodi:type="arc" />
      <path
         transform="matrix(1.306739,0,0,1.306739,-31.276363,-83.525905)"
         d="m 457.8125,212.51843 c 0,4.7462 -3.84755,8.59375 -8.59375,8.59375 -4.7462,0 -8.59375,-3.84755 -8.59375,-8.59375 0,-4.74619 3.84755,-8.59375 8.59375,-8.59375 4.7462,0 8.59375,3.84756 8.59375,8.59375 z"
         sodipodi:ry="8.59375"
         sodipodi:rx="8.59375"
         sodipodi:cy="212.51843"
         sodipodi:cx="449.21875"
         id="path5708-16"
         style="fill:#000000;fill-opacity:1;stroke:#000000;stroke-width:1.25;stroke-miterlimit:4;stroke-opacity:1;stroke-dasharray:none;stroke-dashoffset:0"
         sodipodi:type="arc" />
      <path
         transform="matrix(1.306739,0,0,1.306739,11.924129,-126.0143)"
         d="m 457.8125,212.51843 c 0,4.7462 -3.84755,8.59375 -8.59375,8.59375 -4.7462,0 -8.59375,-3.84755 -8.59375,-8.59375 0,-4.74619 3.84755,-8.59375 8.59375,-8.59375 4.7462,0 8.59375,3.84756 8.59375,8.59375 z"
         sodipodi:ry="8.59375"
         sodipodi:rx="8.59375"
         sodipodi:cy="212.51843"
         sodipodi:cx="449.21875"
         id="path5708-40"
         style="fill:#000000;fill-opacity:1;stroke:#000000;stroke-width:1.25;stroke-miterlimit:4;stroke-opacity:1;stroke-dasharray:none;stroke-dashoffset:0"
         sodipodi:type="arc" />
      <path
         transform="matrix(1.306739,0,0,1.306739,47.054201,-161.14437)"
         d="m 457.8125,212.51843 c 0,4.7462 -3.84755,8.59375 -8.59375,8.59375 -4.7462,0 -8.59375,-3.84755 -8.59375,-8.59375 0,-4.74619 3.84755,-8.59375 8.59375,-8.59375 4.7462,0 8.59375,3.84756 8.59375,8.59375 z"
         sodipodi:ry="8.59375"
         sodipodi:rx="8.59375"
         sodipodi:cy="212.51843"
         sodipodi:cx="449.21875"
         id="path5708-6189"
         style="fill:#000000;fill-opacity:1;stroke:#000000;stroke-width:1.25;stroke-miterlimit:4;stroke-opacity:1;stroke-dasharray:none;stroke-dashoffset:0"
         sodipodi:type="arc" />
      <path
         transform="matrix(1.306739,0,0,1.306739,-32.225824,23.051136)"
         d="m 457.8125,212.51843 c 0,4.7462 -3.84755,8.59375 -8.59375,8.59375 -4.7462,0 -8.59375,-3.84755 -8.59375,-8.59375 0,-4.74619 3.84755,-8.59375 8.59375,-8.59375 4.7462,0 8.59375,3.84756 8.59375,8.59375 z"
         sodipodi:ry="8.59375"
         sodipodi:rx="8.59375"
         sodipodi:cy="212.51843"
         sodipodi:cx="449.21875"
         id="path5708-84"
         style="fill:#000000;fill-opacity:1;stroke:#000000;stroke-width:1.25;stroke-miterlimit:4;stroke-opacity:1;stroke-dasharray:none;stroke-dashoffset:0"
         sodipodi:type="arc" />
      <path
         transform="matrix(1.306739,0,0,1.306739,24.504492,0.97615808)"
         d="m 457.8125,212.51843 c 0,4.7462 -3.84755,8.59375 -8.59375,8.59375 -4.7462,0 -8.59375,-3.84755 -8.59375,-8.59375 0,-4.74619 3.84755,-8.59375 8.59375,-8.59375 4.7462,0 8.59375,3.84756 8.59375,8.59375 z"
         sodipodi:ry="8.59375"
         sodipodi:rx="8.59375"
         sodipodi:cy="212.51843"
         sodipodi:cx="449.21875"
         id="path5708-14"
         style="fill:#000000;fill-opacity:1;stroke:#000000;stroke-width:1.25;stroke-miterlimit:4;stroke-opacity:1;stroke-dasharray:none;stroke-dashoffset:0"
         sodipodi:type="arc" />
      <path
         transform="matrix(1.306739,0,0,1.306739,-17.983905,99.245412)"
         d="m 457.8125,212.51843 c 0,4.7462 -3.84755,8.59375 -8.59375,8.59375 -4.7462,0 -8.59375,-3.84755 -8.59375,-8.59375 0,-4.74619 3.84755,-8.59375 8.59375,-8.59375 4.7462,0 8.59375,3.84756 8.59375,8.59375 z"
         sodipodi:ry="8.59375"
         sodipodi:rx="8.59375"
         sodipodi:cy="212.51843"
         sodipodi:cx="449.21875"
         id="path5708-39"
         style="fill:#000000;fill-opacity:1;stroke:#000000;stroke-width:1.25;stroke-miterlimit:4;stroke-opacity:1;stroke-dasharray:none;stroke-dashoffset:0"
         sodipodi:type="arc" />
      <path
         transform="matrix(1.306739,0,0,1.306739,42.781623,100.19487)"
         d="m 457.8125,212.51843 c 0,4.7462 -3.84755,8.59375 -8.59375,8.59375 -4.7462,0 -8.59375,-3.84755 -8.59375,-8.59375 0,-4.74619 3.84755,-8.59375 8.59375,-8.59375 4.7462,0 8.59375,3.84756 8.59375,8.59375 z"
         sodipodi:ry="8.59375"
         sodipodi:rx="8.59375"
         sodipodi:cy="212.51843"
         sodipodi:cx="449.21875"
         id="path5708-88"
         style="fill:#000000;fill-opacity:1;stroke:#000000;stroke-width:1.25;stroke-miterlimit:4;stroke-opacity:1;stroke-dasharray:none;stroke-dashoffset:0"
         sodipodi:type="arc" />
      <path
         transform="matrix(1.306739,0,0,1.306739,80.047983,-21.57355)"
         d="m 457.8125,212.51843 c 0,4.7462 -3.84755,8.59375 -8.59375,8.59375 -4.7462,0 -8.59375,-3.84755 -8.59375,-8.59375 0,-4.74619 3.84755,-8.59375 8.59375,-8.59375 4.7462,0 8.59375,3.84756 8.59375,8.59375 z"
         sodipodi:ry="8.59375"
         sodipodi:rx="8.59375"
         sodipodi:cy="212.51843"
         sodipodi:cx="449.21875"
         id="path5708-08"
         style="fill:#000000;fill-opacity:1;stroke:#000000;stroke-width:1.25;stroke-miterlimit:4;stroke-opacity:1;stroke-dasharray:none;stroke-dashoffset:0"
         sodipodi:type="arc" />
      <path
         transform="matrix(1.306739,0,0,1.306739,127.52105,-40.562777)"
         d="m 457.8125,212.51843 c 0,4.7462 -3.84755,8.59375 -8.59375,8.59375 -4.7462,0 -8.59375,-3.84755 -8.59375,-8.59375 0,-4.74619 3.84755,-8.59375 8.59375,-8.59375 4.7462,0 8.59375,3.84756 8.59375,8.59375 z"
         sodipodi:ry="8.59375"
         sodipodi:rx="8.59375"
         sodipodi:cy="212.51843"
         sodipodi:cx="449.21875"
         id="path5708-778"
         style="fill:#000000;fill-opacity:1;stroke:#000000;stroke-width:1.25;stroke-miterlimit:4;stroke-opacity:1;stroke-dasharray:none;stroke-dashoffset:0"
         sodipodi:type="arc" />
      <path
         transform="matrix(1.306739,0,0,1.306739,102.83506,99.245412)"
         d="m 457.8125,212.51843 c 0,4.7462 -3.84755,8.59375 -8.59375,8.59375 -4.7462,0 -8.59375,-3.84755 -8.59375,-8.59375 0,-4.74619 3.84755,-8.59375 8.59375,-8.59375 4.7462,0 8.59375,3.84756 8.59375,8.59375 z"
         sodipodi:ry="8.59375"
         sodipodi:rx="8.59375"
         sodipodi:cy="212.51843"
         sodipodi:cx="449.21875"
         id="path5708-383"
         style="fill:#000000;fill-opacity:1;stroke:#000000;stroke-width:1.25;stroke-miterlimit:4;stroke-opacity:1;stroke-dasharray:none;stroke-dashoffset:0"
         sodipodi:type="arc" />
      <path
         transform="matrix(1.306739,0,0,1.306739,153.39387,99.720141)"
         d="m 457.8125,212.51843 c 0,4.7462 -3.84755,8.59375 -8.59375,8.59375 -4.7462,0 -8.59375,-3.84755 -8.59375,-8.59375 0,-4.74619 3.84755,-8.59375 8.59375,-8.59375 4.7462,0 8.59375,3.84756 8.59375,8.59375 z"
         sodipodi:ry="8.59375"
         sodipodi:rx="8.59375"
         sodipodi:cy="212.51843"
         sodipodi:cx="449.21875"
         id="path5708-71"
         style="fill:#000000;fill-opacity:1;stroke:#000000;stroke-width:1.25;stroke-miterlimit:4;stroke-opacity:1;stroke-dasharray:none;stroke-dashoffset:0"
         sodipodi:type="arc" />
      <path
         transform="matrix(1.306739,0,0,1.306739,-32.225824,168.55609)"
         d="m 457.8125,212.51843 c 0,4.7462 -3.84755,8.59375 -8.59375,8.59375 -4.7462,0 -8.59375,-3.84755 -8.59375,-8.59375 0,-4.74619 3.84755,-8.59375 8.59375,-8.59375 4.7462,0 8.59375,3.84756 8.59375,8.59375 z"
         sodipodi:ry="8.59375"
         sodipodi:rx="8.59375"
         sodipodi:cy="212.51843"
         sodipodi:cx="449.21875"
         id="path5708-073"
         style="fill:#000000;fill-opacity:1;stroke:#000000;stroke-width:1.25;stroke-miterlimit:4;stroke-opacity:1;stroke-dasharray:none;stroke-dashoffset:0"
         sodipodi:type="arc" />
      <path
         transform="matrix(1.306739,0,0,1.306739,25.69132,190.86843)"
         d="m 457.8125,212.51843 c 0,4.7462 -3.84755,8.59375 -8.59375,8.59375 -4.7462,0 -8.59375,-3.84755 -8.59375,-8.59375 0,-4.74619 3.84755,-8.59375 8.59375,-8.59375 4.7462,0 8.59375,3.84756 8.59375,8.59375 z"
         sodipodi:ry="8.59375"
         sodipodi:rx="8.59375"
         sodipodi:cy="212.51843"
         sodipodi:cx="449.21875"
         id="path5708-496"
         style="fill:#000000;fill-opacity:1;stroke:#000000;stroke-width:1.25;stroke-miterlimit:4;stroke-opacity:1;stroke-dasharray:none;stroke-dashoffset:0"
         sodipodi:type="arc" />
      <path
         transform="matrix(1.306739,0,0,1.306739,81.946905,213.18079)"
         d="m 457.8125,212.51843 c 0,4.7462 -3.84755,8.59375 -8.59375,8.59375 -4.7462,0 -8.59375,-3.84755 -8.59375,-8.59375 0,-4.74619 3.84755,-8.59375 8.59375,-8.59375 4.7462,0 8.59375,3.84756 8.59375,8.59375 z"
         sodipodi:ry="8.59375"
         sodipodi:rx="8.59375"
         sodipodi:cy="212.51843"
         sodipodi:cx="449.21875"
         id="path5708-510"
         style="fill:#000000;fill-opacity:1;stroke:#000000;stroke-width:1.25;stroke-miterlimit:4;stroke-opacity:1;stroke-dasharray:none;stroke-dashoffset:0"
         sodipodi:type="arc" />
      <path
         transform="matrix(1.306739,0,0,1.306739,127.99578,230.74582)"
         d="m 457.8125,212.51843 c 0,4.7462 -3.84755,8.59375 -8.59375,8.59375 -4.7462,0 -8.59375,-3.84755 -8.59375,-8.59375 0,-4.74619 3.84755,-8.59375 8.59375,-8.59375 4.7462,0 8.59375,3.84756 8.59375,8.59375 z"
         sodipodi:ry="8.59375"
         sodipodi:rx="8.59375"
         sodipodi:cy="212.51843"
         sodipodi:cx="449.21875"
         id="path5708-99"
         style="fill:#000000;fill-opacity:1;stroke:#000000;stroke-width:1.25;stroke-miterlimit:4;stroke-opacity:1;stroke-dasharray:none;stroke-dashoffset:0"
         sodipodi:type="arc" />
      <path
         transform="matrix(1.306739,0,0,1.306739,-78.037335,235.96784)"
         d="m 457.8125,212.51843 c 0,4.7462 -3.84755,8.59375 -8.59375,8.59375 -4.7462,0 -8.59375,-3.84755 -8.59375,-8.59375 0,-4.74619 3.84755,-8.59375 8.59375,-8.59375 4.7462,0 8.59375,3.84756 8.59375,8.59375 z"
         sodipodi:ry="8.59375"
         sodipodi:rx="8.59375"
         sodipodi:cy="212.51843"
         sodipodi:cx="449.21875"
         id="path5708-68"
         style="fill:#000000;fill-opacity:1;stroke:#000000;stroke-width:1.25;stroke-miterlimit:4;stroke-opacity:1;stroke-dasharray:none;stroke-dashoffset:0"
         sodipodi:type="arc" />
      <path
         transform="matrix(1.306739,0,0,1.306739,-34.124746,279.16834)"
         d="m 457.8125,212.51843 c 0,4.7462 -3.84755,8.59375 -8.59375,8.59375 -4.7462,0 -8.59375,-3.84755 -8.59375,-8.59375 0,-4.74619 3.84755,-8.59375 8.59375,-8.59375 4.7462,0 8.59375,3.84756 8.59375,8.59375 z"
         sodipodi:ry="8.59375"
         sodipodi:rx="8.59375"
         sodipodi:cy="212.51843"
         sodipodi:cx="449.21875"
         id="path5708-34"
         style="fill:#000000;fill-opacity:1;stroke:#000000;stroke-width:1.25;stroke-miterlimit:4;stroke-opacity:1;stroke-dasharray:none;stroke-dashoffset:0"
         sodipodi:type="arc" />
      <path
         transform="matrix(1.306739,0,0,1.306739,8.3636486,322.60621)"
         d="m 457.8125,212.51843 c 0,4.7462 -3.84755,8.59375 -8.59375,8.59375 -4.7462,0 -8.59375,-3.84755 -8.59375,-8.59375 0,-4.74619 3.84755,-8.59375 8.59375,-8.59375 4.7462,0 8.59375,3.84756 8.59375,8.59375 z"
         sodipodi:ry="8.59375"
         sodipodi:rx="8.59375"
         sodipodi:cy="212.51843"
         sodipodi:cx="449.21875"
         id="path5708-849"
         style="fill:#000000;fill-opacity:1;stroke:#000000;stroke-width:1.25;stroke-miterlimit:4;stroke-opacity:1;stroke-dasharray:none;stroke-dashoffset:0"
         sodipodi:type="arc" />
      <path
         transform="matrix(1.306739,0,0,1.306739,44.443181,358.21101)"
         d="m 457.8125,212.51843 c 0,4.7462 -3.84755,8.59375 -8.59375,8.59375 -4.7462,0 -8.59375,-3.84755 -8.59375,-8.59375 0,-4.74619 3.84755,-8.59375 8.59375,-8.59375 4.7462,0 8.59375,3.84756 8.59375,8.59375 z"
         sodipodi:ry="8.59375"
         sodipodi:rx="8.59375"
         sodipodi:cy="212.51843"
         sodipodi:cx="449.21875"
         id="path5708-92"
         style="fill:#000000;fill-opacity:1;stroke:#000000;stroke-width:1.25;stroke-miterlimit:4;stroke-opacity:1;stroke-dasharray:none;stroke-dashoffset:0"
         sodipodi:type="arc" />
      <path
         transform="matrix(1.306739,0,0,1.306739,-142.36335,277.98152)"
         d="m 457.8125,212.51843 c 0,4.7462 -3.84755,8.59375 -8.59375,8.59375 -4.7462,0 -8.59375,-3.84755 -8.59375,-8.59375 0,-4.74619 3.84755,-8.59375 8.59375,-8.59375 4.7462,0 8.59375,3.84756 8.59375,8.59375 z"
         sodipodi:ry="8.59375"
         sodipodi:rx="8.59375"
         sodipodi:cy="212.51843"
         sodipodi:cx="449.21875"
         id="path5708-55"
         style="fill:#000000;fill-opacity:1;stroke:#000000;stroke-width:1.25;stroke-miterlimit:4;stroke-opacity:1;stroke-dasharray:none;stroke-dashoffset:0"
         sodipodi:type="arc" />
      <path
         transform="matrix(1.306739,0,0,1.306739,-118.62681,334.71183)"
         d="m 457.8125,212.51843 c 0,4.7462 -3.84755,8.59375 -8.59375,8.59375 -4.7462,0 -8.59375,-3.84755 -8.59375,-8.59375 0,-4.74619 3.84755,-8.59375 8.59375,-8.59375 4.7462,0 8.59375,3.84756 8.59375,8.59375 z"
         sodipodi:ry="8.59375"
         sodipodi:rx="8.59375"
         sodipodi:cy="212.51843"
         sodipodi:cx="449.21875"
         id="path5708-33"
         style="fill:#000000;fill-opacity:1;stroke:#000000;stroke-width:1.25;stroke-miterlimit:4;stroke-opacity:1;stroke-dasharray:none;stroke-dashoffset:0"
         sodipodi:type="arc" />
      <path
         transform="matrix(1.306739,0,0,1.306739,-95.839739,391.20479)"
         d="m 457.8125,212.51843 c 0,4.7462 -3.84755,8.59375 -8.59375,8.59375 -4.7462,0 -8.59375,-3.84755 -8.59375,-8.59375 0,-4.74619 3.84755,-8.59375 8.59375,-8.59375 4.7462,0 8.59375,3.84756 8.59375,8.59375 z"
         sodipodi:ry="8.59375"
         sodipodi:rx="8.59375"
         sodipodi:cy="212.51843"
         sodipodi:cx="449.21875"
         id="path5708-374"
         style="fill:#000000;fill-opacity:1;stroke:#000000;stroke-width:1.25;stroke-miterlimit:4;stroke-opacity:1;stroke-dasharray:none;stroke-dashoffset:0"
         sodipodi:type="arc" />
      <path
         transform="matrix(1.306739,0,0,1.306739,-78.274701,436.77894)"
         d="m 457.8125,212.51843 c 0,4.7462 -3.84755,8.59375 -8.59375,8.59375 -4.7462,0 -8.59375,-3.84755 -8.59375,-8.59375 0,-4.74619 3.84755,-8.59375 8.59375,-8.59375 4.7462,0 8.59375,3.84756 8.59375,8.59375 z"
         sodipodi:ry="8.59375"
         sodipodi:rx="8.59375"
         sodipodi:cy="212.51843"
         sodipodi:cx="449.21875"
         id="path5708-380"
         style="fill:#000000;fill-opacity:1;stroke:#000000;stroke-width:1.25;stroke-miterlimit:4;stroke-opacity:1;stroke-dasharray:none;stroke-dashoffset:0"
         sodipodi:type="arc" />
      <path
         transform="matrix(1.306739,0,0,1.306739,-213.09822,463.12647)"
         d="m 457.8125,212.51843 c 0,4.7462 -3.84755,8.59375 -8.59375,8.59375 -4.7462,0 -8.59375,-3.84755 -8.59375,-8.59375 0,-4.74619 3.84755,-8.59375 8.59375,-8.59375 4.7462,0 8.59375,3.84756 8.59375,8.59375 z"
         sodipodi:ry="8.59375"
         sodipodi:rx="8.59375"
         sodipodi:cy="212.51843"
         sodipodi:cx="449.21875"
         id="path5708-880"
         style="fill:#000000;fill-opacity:1;stroke:#000000;stroke-width:1.25;stroke-miterlimit:4;stroke-opacity:1;stroke-dasharray:none;stroke-dashoffset:0"
         sodipodi:type="arc" />
      <path
         transform="matrix(1.306739,0,0,1.306739,-213.33559,413.04241)"
         d="m 457.8125,212.51843 c 0,4.7462 -3.84755,8.59375 -8.59375,8.59375 -4.7462,0 -8.59375,-3.84755 -8.59375,-8.59375 0,-4.74619 3.84755,-8.59375 8.59375,-8.59375 4.7462,0 8.59375,3.84756 8.59375,8.59375 z"
         sodipodi:ry="8.59375"
         sodipodi:rx="8.59375"
         sodipodi:cy="212.51843"
         sodipodi:cx="449.21875"
         id="path5708-681"
         style="fill:#000000;fill-opacity:1;stroke:#000000;stroke-width:1.25;stroke-miterlimit:4;stroke-opacity:1;stroke-dasharray:none;stroke-dashoffset:0"
         sodipodi:type="arc" />
      <path
         transform="matrix(1.306739,0,0,1.306739,-213.33558,353.70107)"
         d="m 457.8125,212.51843 c 0,4.7462 -3.84755,8.59375 -8.59375,8.59375 -4.7462,0 -8.59375,-3.84755 -8.59375,-8.59375 0,-4.74619 3.84755,-8.59375 8.59375,-8.59375 4.7462,0 8.59375,3.84756 8.59375,8.59375 z"
         sodipodi:ry="8.59375"
         sodipodi:rx="8.59375"
         sodipodi:cy="212.51843"
         sodipodi:cx="449.21875"
         id="path5708-989"
         style="fill:#000000;fill-opacity:1;stroke:#000000;stroke-width:1.25;stroke-miterlimit:4;stroke-opacity:1;stroke-dasharray:none;stroke-dashoffset:0"
         sodipodi:type="arc" />
      <path
         transform="matrix(1.306739,0,0,1.306739,-213.33558,291.27398)"
         d="m 457.8125,212.51843 c 0,4.7462 -3.84755,8.59375 -8.59375,8.59375 -4.7462,0 -8.59375,-3.84755 -8.59375,-8.59375 0,-4.74619 3.84755,-8.59375 8.59375,-8.59375 4.7462,0 8.59375,3.84756 8.59375,8.59375 z"
         sodipodi:ry="8.59375"
         sodipodi:rx="8.59375"
         sodipodi:cy="212.51843"
         sodipodi:cx="449.21875"
         id="path5708-72"
         style="fill:#000000;fill-opacity:1;stroke:#000000;stroke-width:1.25;stroke-miterlimit:4;stroke-opacity:1;stroke-dasharray:none;stroke-dashoffset:0"
         sodipodi:type="arc" />
      <path
         transform="matrix(1.306739,0,0,1.306739,-294.51454,272.75948)"
         d="m 457.8125,212.51843 c 0,4.7462 -3.84755,8.59375 -8.59375,8.59375 -4.7462,0 -8.59375,-3.84755 -8.59375,-8.59375 0,-4.74619 3.84755,-8.59375 8.59375,-8.59375 4.7462,0 8.59375,3.84756 8.59375,8.59375 z"
         sodipodi:ry="8.59375"
         sodipodi:rx="8.59375"
         sodipodi:cy="212.51843"
         sodipodi:cx="449.21875"
         id="path5708-282"
         style="fill:#000000;fill-opacity:1;stroke:#000000;stroke-width:1.25;stroke-miterlimit:4;stroke-opacity:1;stroke-dasharray:none;stroke-dashoffset:0"
         sodipodi:type="arc" />
      <path
         transform="matrix(1.306739,0,0,1.306739,-321.33682,329.72716)"
         d="m 457.8125,212.51843 c 0,4.7462 -3.84755,8.59375 -8.59375,8.59375 -4.7462,0 -8.59375,-3.84755 -8.59375,-8.59375 0,-4.74619 3.84755,-8.59375 8.59375,-8.59375 4.7462,0 8.59375,3.84756 8.59375,8.59375 z"
         sodipodi:ry="8.59375"
         sodipodi:rx="8.59375"
         sodipodi:cy="212.51843"
         sodipodi:cx="449.21875"
         id="path5708-89"
         style="fill:#000000;fill-opacity:1;stroke:#000000;stroke-width:1.25;stroke-miterlimit:4;stroke-opacity:1;stroke-dasharray:none;stroke-dashoffset:0"
         sodipodi:type="arc" />
      <path
         transform="matrix(1.306739,0,0,1.306739,-346.97226,384.55854)"
         d="m 457.8125,212.51843 c 0,4.7462 -3.84755,8.59375 -8.59375,8.59375 -4.7462,0 -8.59375,-3.84755 -8.59375,-8.59375 0,-4.74619 3.84755,-8.59375 8.59375,-8.59375 4.7462,0 8.59375,3.84756 8.59375,8.59375 z"
         sodipodi:ry="8.59375"
         sodipodi:rx="8.59375"
         sodipodi:cy="212.51843"
         sodipodi:cx="449.21875"
         id="path5708-078"
         style="fill:#000000;fill-opacity:1;stroke:#000000;stroke-width:1.25;stroke-miterlimit:4;stroke-opacity:1;stroke-dasharray:none;stroke-dashoffset:0"
         sodipodi:type="arc" />
      <path
         transform="matrix(1.306739,0,0,1.306739,-367.86041,429.89534)"
         d="m 457.8125,212.51843 c 0,4.7462 -3.84755,8.59375 -8.59375,8.59375 -4.7462,0 -8.59375,-3.84755 -8.59375,-8.59375 0,-4.74619 3.84755,-8.59375 8.59375,-8.59375 4.7462,0 8.59375,3.84756 8.59375,8.59375 z"
         sodipodi:ry="8.59375"
         sodipodi:rx="8.59375"
         sodipodi:cy="212.51843"
         sodipodi:cx="449.21875"
         id="path5708-158"
         style="fill:#000000;fill-opacity:1;stroke:#000000;stroke-width:1.25;stroke-miterlimit:4;stroke-opacity:1;stroke-dasharray:none;stroke-dashoffset:0"
         sodipodi:type="arc" />
      <path
         transform="matrix(1.306739,0,0,1.306739,-471.58909,357.4989)"
         d="m 457.8125,212.51843 c 0,4.7462 -3.84755,8.59375 -8.59375,8.59375 -4.7462,0 -8.59375,-3.84755 -8.59375,-8.59375 0,-4.74619 3.84755,-8.59375 8.59375,-8.59375 4.7462,0 8.59375,3.84756 8.59375,8.59375 z"
         sodipodi:ry="8.59375"
         sodipodi:rx="8.59375"
         sodipodi:cy="212.51843"
         sodipodi:cx="449.21875"
         id="path5708-612"
         style="fill:#000000;fill-opacity:1;stroke:#000000;stroke-width:1.25;stroke-miterlimit:4;stroke-opacity:1;stroke-dasharray:none;stroke-dashoffset:0"
         sodipodi:type="arc" />
      <path
         transform="matrix(1.306739,0,0,1.306739,-435.50954,320.94465)"
         d="m 457.8125,212.51843 c 0,4.7462 -3.84755,8.59375 -8.59375,8.59375 -4.7462,0 -8.59375,-3.84755 -8.59375,-8.59375 0,-4.74619 3.84755,-8.59375 8.59375,-8.59375 4.7462,0 8.59375,3.84756 8.59375,8.59375 z"
         sodipodi:ry="8.59375"
         sodipodi:rx="8.59375"
         sodipodi:cy="212.51843"
         sodipodi:cx="449.21875"
         id="path5708-425"
         style="fill:#000000;fill-opacity:1;stroke:#000000;stroke-width:1.25;stroke-miterlimit:4;stroke-opacity:1;stroke-dasharray:none;stroke-dashoffset:0"
         sodipodi:type="arc" />
      <path
         transform="matrix(1.306739,0,0,1.306739,-393.25851,278.69362)"
         d="m 457.8125,212.51843 c 0,4.7462 -3.84755,8.59375 -8.59375,8.59375 -4.7462,0 -8.59375,-3.84755 -8.59375,-8.59375 0,-4.74619 3.84755,-8.59375 8.59375,-8.59375 4.7462,0 8.59375,3.84756 8.59375,8.59375 z"
         sodipodi:ry="8.59375"
         sodipodi:rx="8.59375"
         sodipodi:cy="212.51843"
         sodipodi:cx="449.21875"
         id="path5708-86"
         style="fill:#000000;fill-opacity:1;stroke:#000000;stroke-width:1.25;stroke-miterlimit:4;stroke-opacity:1;stroke-dasharray:none;stroke-dashoffset:0"
         sodipodi:type="arc" />
      <path
         transform="matrix(1.306739,0,0,1.306739,-350.29538,234.78102)"
         d="m 457.8125,212.51843 c 0,4.7462 -3.84755,8.59375 -8.59375,8.59375 -4.7462,0 -8.59375,-3.84755 -8.59375,-8.59375 0,-4.74619 3.84755,-8.59375 8.59375,-8.59375 4.7462,0 8.59375,3.84756 8.59375,8.59375 z"
         sodipodi:ry="8.59375"
         sodipodi:rx="8.59375"
         sodipodi:cy="212.51843"
         sodipodi:cx="449.21875"
         id="path5708-265"
         style="fill:#000000;fill-opacity:1;stroke:#000000;stroke-width:1.25;stroke-miterlimit:4;stroke-opacity:1;stroke-dasharray:none;stroke-dashoffset:0"
         sodipodi:type="arc" />
      <path
         transform="matrix(1.306739,0,0,1.306739,-555.3177,236.76479)"
         d="m 457.8125,212.51843 c 0,4.7462 -3.84755,8.59375 -8.59375,8.59375 -4.7462,0 -8.59375,-3.84755 -8.59375,-8.59375 0,-4.74619 3.84755,-8.59375 8.59375,-8.59375 4.7462,0 8.59375,3.84756 8.59375,8.59375 z"
         sodipodi:ry="8.59375"
         sodipodi:rx="8.59375"
         sodipodi:cy="212.51843"
         sodipodi:cx="449.21875"
         id="path5708-392"
         style="fill:#000000;fill-opacity:1;stroke:#000000;stroke-width:1.25;stroke-miterlimit:4;stroke-opacity:1;stroke-dasharray:none;stroke-dashoffset:0"
         sodipodi:type="arc" />
      <path
         transform="matrix(1.306739,0,0,1.306739,-580.99763,99.805198)"
         d="m 457.8125,212.51843 c 0,4.7462 -3.84755,8.59375 -8.59375,8.59375 -4.7462,0 -8.59375,-3.84755 -8.59375,-8.59375 0,-4.74619 3.84755,-8.59375 8.59375,-8.59375 4.7462,0 8.59375,3.84756 8.59375,8.59375 z"
         sodipodi:ry="8.59375"
         sodipodi:rx="8.59375"
         sodipodi:cy="212.51843"
         sodipodi:cx="449.21875"
         id="path5708-461"
         style="fill:#000000;fill-opacity:1;stroke:#000000;stroke-width:1.25;stroke-miterlimit:4;stroke-opacity:1;stroke-dasharray:none;stroke-dashoffset:0"
         sodipodi:type="arc" />
      <path
         transform="matrix(1.306739,0,0,1.306739,-558.17103,-33.629702)"
         d="m 457.8125,212.51843 c 0,4.7462 -3.84755,8.59375 -8.59375,8.59375 -4.7462,0 -8.59375,-3.84755 -8.59375,-8.59375 0,-4.74619 3.84755,-8.59375 8.59375,-8.59375 4.7462,0 8.59375,3.84756 8.59375,8.59375 z"
         sodipodi:ry="8.59375"
         sodipodi:rx="8.59375"
         sodipodi:cy="212.51843"
         sodipodi:cx="449.21875"
         id="path5708-821"
         style="fill:#000000;fill-opacity:1;stroke:#000000;stroke-width:1.25;stroke-miterlimit:4;stroke-opacity:1;stroke-dasharray:none;stroke-dashoffset:0"
         sodipodi:type="arc" />
      <path
         inkscape:connector-curvature="0"
         id="path6426"
         d="m 96.286507,2.5169681 0,739.2030019"
         style="fill:none;stroke:#000000;stroke-width:1.875;stroke-linecap:butt;stroke-linejoin:miter;stroke-miterlimit:4;stroke-opacity:1;stroke-dasharray:none" />
      <path
         inkscape:connector-curvature="0"
         id="path6426-9"
         d="m 188.39169,3.3781065 0,737.8324935"
         style="fill:none;stroke:#000000;stroke-width:1.875;stroke-linecap:butt;stroke-linejoin:miter;stroke-miterlimit:4;stroke-opacity:1;stroke-dasharray:none" />
      <path
         inkscape:connector-curvature="0"
         id="path6426-5"
         d="m 280.26805,2.6822334 0,739.1767166"
         style="fill:none;stroke:#000000;stroke-width:1.875;stroke-linecap:butt;stroke-linejoin:miter;stroke-miterlimit:4;stroke-opacity:1;stroke-dasharray:none" />
      <path
         inkscape:connector-curvature="0"
         id="path6426-3"
         d="m 372.2329,3.2906518 0,738.3497082"
         style="fill:none;stroke:#000000;stroke-width:1.50594759px;stroke-linecap:butt;stroke-linejoin:miter;stroke-opacity:1" />
      <path
         inkscape:connector-curvature="0"
         id="path6426-2"
         d="m 463.96984,2.9361095 0,738.6916305"
         style="fill:none;stroke:#000000;stroke-width:1.875;stroke-linecap:butt;stroke-linejoin:miter;stroke-miterlimit:4;stroke-opacity:1;stroke-dasharray:none" />
      <path
         inkscape:connector-curvature="0"
         id="path6426-52"
         d="m 555.71882,4.1436929 0,737.6359371"
         style="fill:none;stroke:#000000;stroke-width:1.875;stroke-linecap:butt;stroke-linejoin:miter;stroke-miterlimit:4;stroke-opacity:1;stroke-dasharray:none" />
      <path
         inkscape:connector-curvature="0"
         id="path6426-58"
         d="m 648.15314,2.6699562 0,740.2225138"
         style="fill:none;stroke:#000000;stroke-width:1.875;stroke-linecap:butt;stroke-linejoin:miter;stroke-miterlimit:4;stroke-opacity:1;stroke-dasharray:none" />
      <path
         inkscape:connector-curvature="0"
         id="path6586"
         d="m 4.4219061,649.66674 735.7259239,0"
         style="fill:none;stroke:#000000;stroke-width:1.875;stroke-linecap:butt;stroke-linejoin:miter;stroke-miterlimit:4;stroke-opacity:1;stroke-dasharray:none" />
      <path
         inkscape:connector-curvature="0"
         id="path6586-6"
         d="m 3.8537068,561.50785 736.3330632,0"
         style="fill:none;stroke:#000000;stroke-width:1.875;stroke-linecap:butt;stroke-linejoin:miter;stroke-miterlimit:4;stroke-opacity:1;stroke-dasharray:none" />
      <path
         inkscape:connector-curvature="0"
         id="path6586-7"
         d="m 4.1339099,465.42238 735.1187401,0"
         style="fill:none;stroke:#000000;stroke-width:1.875;stroke-linecap:butt;stroke-linejoin:miter;stroke-miterlimit:4;stroke-opacity:1;stroke-dasharray:none" />
      <path
         inkscape:connector-curvature="0"
         id="path6586-72"
         d="m 4.0740146,373.59046 735.1941254,0"
         style="fill:none;stroke:#000000;stroke-width:1.875;stroke-linecap:butt;stroke-linejoin:miter;stroke-miterlimit:4;stroke-opacity:1;stroke-dasharray:none" />
      <path
         inkscape:connector-curvature="0"
         id="path6586-2"
         d="m 3.5169418,279.63174 736.7219382,0"
         style="fill:none;stroke:#000000;stroke-width:1.875;stroke-linecap:butt;stroke-linejoin:miter;stroke-miterlimit:4;stroke-opacity:1;stroke-dasharray:none" />
      <path
         inkscape:connector-curvature="0"
         id="path6586-9"
         d="m 3.3789603,189.31899 736.7219497,0"
         style="fill:none;stroke:#000000;stroke-width:1.875;stroke-linecap:butt;stroke-linejoin:miter;stroke-miterlimit:4;stroke-opacity:1;stroke-dasharray:none" />
      <path
         inkscape:connector-curvature="0"
         id="path6586-4"
         d="m 4.0136806,95.132421 736.6682694,0"
         style="fill:none;stroke:#000000;stroke-width:1.875;stroke-linecap:butt;stroke-linejoin:miter;stroke-miterlimit:4;stroke-opacity:1;stroke-dasharray:none" />
    </g>
    <path
       style="fill:#ff0000;fill-opacity:1;fill-rule:nonzero;stroke:none"
       d="m 15.216597,319.53862 -0.02293,-32.00893 5.420135,0 5.420134,0 -0.951016,3.79464 c -4.411665,17.60296 -7.642144,36.73106 -9.435226,55.86724 l -0.40816,4.35598 -0.02293,-32.00893 z"
       id="path4109"
       inkscape:connector-curvature="0" />
    <path
       style="fill:#ff0000;fill-opacity:1;fill-rule:nonzero;stroke:none"
       d="m 15.193664,241.27969 0,-44.10714 23.918793,0 23.918793,0 -1.980318,3.52678 c -4.423788,7.87841 -8.626454,16.07614 -12.427491,24.24108 -2.250527,4.83432 -5.923386,13.13413 -6.190693,13.98954 -0.100297,0.32095 -0.220018,0.39384 -0.515227,0.31368 -3.130786,-0.85018 -6.586179,-0.44709 -9.402429,1.09683 -1.60991,0.88259 -3.829898,3.15885 -4.695135,4.81415 -1.853323,3.54562 -1.851357,8.02301 0.0051,11.54437 0.86585,1.64238 3.093795,3.90976 4.645423,4.72764 0.613839,0.32357 1.116071,0.64842 1.116071,0.7219 0,0.0735 -0.676157,2.21832 -1.502573,4.76631 -1.648013,5.08114 -3.43374,11.0116 -4.567384,15.16843 -0.401772,1.47322 -0.772772,2.8192 -0.824445,2.99107 -0.08693,0.28914 -0.520325,0.3125 -5.796203,0.3125 l -5.702252,0 0,-44.10714 z"
       id="path4111"
       inkscape:connector-curvature="0" />
    <path
       style="fill:#ff0000;fill-opacity:1;fill-rule:nonzero;stroke:none"
       d="m 15.193664,163.06541 0,-32.14286 44.821428,0 44.821428,0 0,3.82084 0,3.82084 -3.08779,3.63452 c -11.717811,13.79256 -22.4251,28.44834 -31.943948,43.7238 -1.62185,2.60268 -3.543818,5.75548 -4.27104,7.00622 l -1.322221,2.27408 -24.508929,0.003 -24.508928,0.003 0,-32.14285 z"
       id="path4113"
       inkscape:connector-curvature="0" />
    <path
       style="fill:#ff0000;fill-opacity:1;fill-rule:nonzero;stroke:none"
       d="m 15.193664,116.99398 0,-13.92857 44.821428,0 44.821428,0 0,13.92857 0,13.92857 -44.821428,0 -44.821428,0 0,-13.92857 z"
       id="path4115"
       inkscape:connector-curvature="0" />
    <path
       style="fill:#ff0000;fill-opacity:1;fill-rule:nonzero;stroke:none"
       d="m 15.193664,56.10112 0,-44.821429 44.821428,0 44.821428,0 0,44.821429 0,44.82143 -44.821428,0 -44.821428,0 0,-44.82143 z"
       id="path4117"
       inkscape:connector-curvature="0" />
    <path
       style="fill:#ff0000;fill-opacity:1;fill-rule:nonzero;stroke:none"
       d="m 106.97938,56.10112 0,-44.821429 45,0 45,0 0,25.495454 0,25.495452 -2.09822,1.239373 c -16.74914,9.893373 -34.81798,22.762754 -49.86607,35.516695 l -2.23214,1.891845 -17.90179,0.002 -17.90178,0.002 0,-44.82143 z"
       id="path4119"
       inkscape:connector-curvature="0" />
    <path
       style="fill:#ff0000;fill-opacity:1;fill-rule:nonzero;stroke:none"
       d="m 106.97938,119.61303 0,-16.54762 16.64773,0 16.64772,0 -0.44237,0.41651 c -0.2433,0.22909 -1.56516,1.41436 -2.93747,2.63393 -1.3723,1.21958 -3.8918,3.51709 -5.59888,5.10559 l -3.10379,2.88818 -0.82968,-0.59002 c -1.09203,-0.77658 -2.01506,-1.23172 -3.52089,-1.73614 -1.05298,-0.35272 -1.5833,-0.41263 -3.5588,-0.40206 -2.0248,0.0108 -2.50886,0.0743 -3.78831,0.49684 -6.79077,2.24256 -10.16105,10.06504 -7.15462,16.60602 0.32218,0.70097 0.84695,1.61739 1.16614,2.0365 0.3192,0.41911 0.58036,0.82504 0.58036,0.90207 0,0.10129 -3.10204,3.6855 -4.03608,4.66341 -0.0391,0.0409 -0.0711,-7.37203 -0.0711,-16.47321 z"
       id="path4121"
       inkscape:connector-curvature="0" />
    <path
       style="fill:#ff0000;fill-opacity:1;fill-rule:nonzero;stroke:none"
       d="m 199.12224,36.10112 0,-24.821429 44.91071,0 44.91071,0 0,6.421689 0,6.421689 -0.75892,0.202535 c -10.04908,2.681803 -18.93821,5.43242 -28.58122,8.844048 -2.67095,0.944968 -4.90945,1.750404 -4.97442,1.789857 -0.065,0.03946 -0.37465,-0.345162 -0.68818,-0.854705 -2.29366,-3.727686 -6.09481,-5.860827 -10.44368,-5.860827 -6.73442,0 -12.06186,5.321493 -12.05094,12.037493 0.001,0.892771 0.12377,2.13707 0.27181,2.765105 0.14804,0.628038 0.2473,1.159629 0.22057,1.181316 -0.0267,0.02169 -2.17805,1.025284 -4.78073,2.230217 -7.80858,3.615046 -16.23263,7.932371 -24.34859,12.478646 -1.94976,1.092187 -3.57699,1.985795 -3.61607,1.985795 -0.0391,0 -0.071,-11.169643 -0.071,-24.821429 z"
       id="path4123"
       inkscape:connector-curvature="0" />
    <path
       style="fill:#ff0000;fill-opacity:1;fill-rule:nonzero;stroke:none"
       d="m 290.90795,17.452439 0,-6.172748 40.10132,0 40.10132,0 -0.1235,0.401786 c -0.0679,0.220982 -0.15253,0.434093 -0.188,0.473579 -0.0355,0.03949 -1.6929,0.137773 -3.68317,0.218416 -20.59136,0.834326 -42.04776,3.58519 -62.54726,8.019005 -4.12296,0.891751 -12.3604,2.826469 -13.34821,3.13508 -0.29348,0.09169 -0.3125,-0.278165 -0.3125,-6.075118 z"
       id="path4125"
       inkscape:connector-curvature="0" />
    <path
       style="fill:#ff0000;fill-opacity:1;fill-rule:nonzero;stroke:none"
       d=""
       id="path4127"
       inkscape:connector-curvature="0" />
    <path
       style="fill:#ff0000;fill-opacity:1;fill-rule:nonzero;stroke:none"
       d="m 469.83652,22.329664 c -1.12946,-0.285558 -4.38393,-1.034987 -7.23214,-1.665398 -20.60439,-4.560484 -42.62105,-7.418922 -63.90533,-8.296876 -3.77527,-0.155726 -4.03035,-0.21033 -4.03837,-0.864484 -0.002,-0.177898 7.90057,-0.223215 38.92584,-0.223215 l 38.92857,0 0,5.803572 c 0,5.415396 -0.0209,5.802301 -0.3125,5.784584 -0.17187,-0.01044 -1.2366,-0.252626 -2.36607,-0.538183 z"
       id="path4129"
       inkscape:connector-curvature="0" />
    <path
       style="fill:#ff0000;fill-opacity:1;fill-rule:nonzero;stroke:none"
       d="m 561.35438,57.964713 c -1.47322,-0.831834 -4.52944,-2.486584 -6.7916,-3.677222 l -4.11304,-2.164794 0.3081,-1.180432 c 0.39078,-1.497225 0.41599,-4.355652 0.0521,-5.912574 -0.78897,-3.376119 -3.22929,-6.41923 -6.34266,-7.909371 -2.14473,-1.026527 -3.21759,-1.279034 -5.43438,-1.279034 -2.1988,0 -3.29049,0.253029 -5.35714,1.241659 -1.81077,0.866223 -3.64234,2.40662 -4.57746,3.849757 -0.31459,0.485488 -0.5915,0.882704 -0.61536,0.882704 -0.0239,0 -0.71346,-0.287523 -1.53243,-0.63894 -14.38269,-6.171553 -32.83531,-12.516224 -48.31815,-16.613513 l -3.97197,-1.051119 -0.001,-6.116071 -0.001,-6.116072 44.82143,0 44.82143,0 0,24.107143 c 0,13.258929 -0.0603,24.103354 -0.13393,24.098724 -0.0737,-0.0046 -1.33929,-0.689011 -2.8125,-1.520845 z"
       id="path4131"
       inkscape:connector-curvature="0" />
    <path
       style="fill:#ff0000;fill-opacity:1;fill-rule:nonzero;stroke:none"
       d=""
       id="path4133"
       inkscape:connector-curvature="0" />
    <path
       style="fill:#ff0000;fill-opacity:1;fill-rule:nonzero;stroke:none"
       d=""
       id="path4135"
       inkscape:connector-curvature="0" />
    <path
       style="fill:#ff0000;fill-opacity:1;fill-rule:nonzero;stroke:none"
       d="M 620.81866,98.939467 C 605.97922,86.294842 586.81717,72.714858 569.79978,62.782808 l -3.34031,-1.949545 -0.008,-24.776786 -0.008,-24.776786 45.17858,0 45.17857,0 0,44.821429 0,44.82143 -16.83036,-0.002 -16.83036,-0.002 -2.32143,-1.97808 0,-3e-6 z"
       id="path4137"
       inkscape:connector-curvature="0" />
    <path
       style="fill:#ff0000;fill-opacity:1;fill-rule:nonzero;stroke:none"
       d=""
       id="path4139"
       inkscape:connector-curvature="0" />
    <path
       style="fill:#ff0000;fill-opacity:1;fill-rule:nonzero;stroke:none"
       d="m 655.23125,132.01365 -1.48027,-1.61418 0.7969,-1.6581 c 0.96068,-1.99888 1.24083,-3.25307 1.22799,-5.49739 -0.0305,-5.33564 -3.28594,-9.7092 -8.52863,-11.45803 -1.04326,-0.34801 -1.61918,-0.41697 -3.48215,-0.41697 -2.48889,0 -4.0819,0.36877 -5.84551,1.3532 -0.51413,0.28699 -0.97707,0.5218 -1.02875,0.5218 -0.0517,0 -1.43906,-1.2572 -3.08307,-2.79377 -1.644,-1.53658 -4.13973,-3.80667 -5.54605,-5.04465 l -2.55696,-2.25087 15.48751,-0.0456 c 8.51814,-0.0251 15.5152,-0.0179 15.54904,0.0159 0.0338,0.0338 0.041,6.91083 0.0159,15.2822 l -0.0457,15.22068 -1.48027,-1.61418 0,0 z"
       id="path4141"
       inkscape:connector-curvature="0" />
    <path
       style="fill:#ff0000;fill-opacity:1;fill-rule:nonzero;stroke:none"
       d="m 658.76509,56.10112 0,-44.821429 44.91072,0 44.91071,0 0,44.821429 0,44.82143 -44.91071,0 -44.91072,0 0,-44.82143 z"
       id="path4143"
       inkscape:connector-curvature="0" />
    <path
       style="fill:#ff0000;fill-opacity:1;fill-rule:nonzero;stroke:none"
       d="m 700.39078,192.92838 c -10.16625,-17.5014 -25.82502,-39.10718 -39.78347,-54.89276 l -1.84222,-2.08335 0,-16.44343 0,-16.44343 44.91072,0 44.91071,0 0,46.07142 0,46.07143 -23.4375,-0.003 -23.4375,-0.003 -1.32074,-2.27368 0,-2e-5 z"
       id="path4145"
       inkscape:connector-curvature="0" />
    <path
       style="fill:#ff0000;fill-opacity:1;fill-rule:nonzero;stroke:none"
       d="m 739.23462,285.07433 c -0.0496,-0.17187 -0.383,-1.39732 -0.7408,-2.72321 -1.70761,-6.3278 -4.95861,-16.71104 -7.34075,-23.44534 -0.7241,-2.04704 -1.31655,-3.82931 -1.31655,-3.9606 0,-0.13128 0.35389,-0.44609 0.78642,-0.69957 2.11753,-1.24095 4.16667,-3.83749 5.04251,-6.38954 0.4632,-1.34969 0.51024,-1.70984 0.50904,-3.89781 -0.001,-2.23798 -0.0407,-2.52097 -0.55094,-3.94959 -1.11319,-3.11678 -3.16249,-5.43628 -6.03635,-6.83225 -1.8195,-0.88381 -2.71946,-1.13605 -4.62921,-1.29749 -1.16557,-0.0985 -3.18233,0.10891 -3.95992,0.40729 -0.19756,0.0758 -0.39701,-0.17859 -0.73881,-0.94241 -4.64803,-10.38681 -10.09524,-21.2386 -15.47209,-30.82305 l -1.87833,-3.34821 22.83884,0 22.83884,0 0,44.10714 0,44.10714 -4.63082,0 c -4.25688,0 -4.63811,-0.0252 -4.72108,-0.3125 z"
       id="path4147"
       inkscape:connector-curvature="0" />
    <path
       style="fill:#ff0000;fill-opacity:1;fill-rule:nonzero;stroke:none"
       d="m 748.07107,328.28862 c -1.46485,-10.67893 -4.18214,-24.66601 -7.04235,-36.25 l -1.1133,-4.50893 4.33555,0 4.33555,0 0,21.875 c 0,12.03125 -0.0237,21.875 -0.0526,21.875 -0.0289,0 -0.23721,-1.34598 -0.46287,-2.99107 z"
       id="path4149"
       inkscape:connector-curvature="0" />
    <path
       style="fill:#ff0000;fill-opacity:1;fill-rule:nonzero;stroke:none"
       d="m 740.72938,471.09431 c 0,-0.10196 0.36551,-1.68902 0.81224,-3.52679 2.44958,-10.07701 4.78256,-22.17348 6.41316,-33.25211 l 0.59137,-4.01786 0.0202,20.49107 0.0202,20.49107 -3.92857,0 c -2.59624,0 -3.92857,-0.0629 -3.92857,-0.18538 z"
       id="path4151"
       inkscape:connector-curvature="0" />
    <path
       style="fill:#ff0000;fill-opacity:1;fill-rule:nonzero;stroke:none"
       d="m 701.51904,566.90086 c 0.60829,-0.92837 5.05162,-8.88661 7.01773,-12.56912 3.96002,-7.4171 9.33318,-18.45418 12.09886,-24.85241 l 1.04839,-2.42537 0.90661,0.16832 c 0.49863,0.0926 1.75036,0.12947 2.78161,0.082 3.19911,-0.1473 5.49175,-1.17566 7.8577,-3.52458 0.97428,-0.96727 1.55271,-1.7361 2.08242,-2.76785 1.12491,-2.19112 1.37871,-3.23475 1.38968,-5.71429 0.008,-1.89776 -0.0498,-2.32371 -0.50877,-3.72408 -0.84389,-2.57477 -2.6671,-4.97938 -4.89163,-6.4515 -0.54296,-0.35932 -0.73364,-0.59018 -0.65326,-0.79093 0.0624,-0.15592 1.10351,-3.2567 2.3135,-6.89063 2.45865,-7.38398 3.78637,-11.75777 5.80025,-19.10715 l 1.3701,-5 4.22715,-0.0479 4.22714,-0.0479 0,47.05681 0,47.0568 -23.68125,0 -23.68125,0 0.29502,-0.45026 z"
       id="path4153"
       inkscape:connector-curvature="0" />
    <path
       style="fill:#ff0000;fill-opacity:1;fill-rule:nonzero;stroke:none"
       d="m 658.76509,640.56511 0,-14.82172 1.48051,-1.65149 c 7.65844,-8.54293 18.12858,-21.93277 25.93667,-33.16935 4.21502,-6.06581 12.31778,-18.64585 13.54328,-21.02679 l 0.29872,-0.58035 24.28112,0 24.28113,0 0,43.03571 0,43.03572 -44.91071,0 -44.91072,0 0,-14.82173 z"
       id="path4155"
       inkscape:connector-curvature="0" />
    <path
       style="fill:#ff0000;fill-opacity:1;fill-rule:nonzero;stroke:none"
       d="m 631.17581,653.69503 c 0.98214,-0.92653 1.84528,-1.68831 1.9181,-1.69283 0.0728,-0.005 0.47529,0.25294 0.8944,0.57214 3.07545,2.34227 7.76534,2.92412 11.5625,1.43451 3.42157,-1.34227 6.16548,-4.34735 7.22049,-7.90773 0.97724,-3.29798 0.25493,-7.55665 -1.75656,-10.3565 l -0.61089,-0.85033 3.12783,-3.3698 c 1.72031,-1.85339 3.15962,-3.40328 3.19848,-3.4442 0.0389,-0.0409 0.0707,6.08631 0.0707,13.61607 l 0,13.69048 -13.70536,-0.004 -13.70536,-0.004 1.78572,-1.68461 0,-2e-5 z"
       id="path4157"
       inkscape:connector-curvature="0" />
    <path
       style="fill:#ff0000;fill-opacity:1;fill-rule:nonzero;stroke:none"
       d="m 658.76509,702.61898 0,-45.08929 44.91072,0 44.91071,0 0,45.08929 0,45.08928 -44.91071,0 -44.91072,0 0,-45.08928 z"
       id="path4159"
       inkscape:connector-curvature="0" />
    <path
       style="fill:#ff0000;fill-opacity:1;fill-rule:nonzero;stroke:none"
       d="m 566.44366,724.32129 0,-23.38697 3.97322,-2.35725 c 18.09988,-10.73837 34.73685,-22.57054 50.66964,-36.0361 1.91518,-1.61861 4.00335,-3.4083 4.64038,-3.9771 l 1.15824,-1.03418 14.95783,0 14.95784,0 0,45.08929 0,45.08928 -45.17857,0 -45.17858,0 0,-23.38697 z"
       id="path4161"
       inkscape:connector-curvature="0" />
    <path
       style="fill:#ff0000;fill-opacity:1;fill-rule:nonzero;stroke:none"
       d="m 474.69968,742.95229 0.0476,-4.75598 4.49226,-1.2103 c 8.2271,-2.21654 18.26989,-5.32179 25.59702,-7.91466 l 3.30357,-1.16904 0.35416,0.48333 c 3.39454,4.63272 9.80325,6.34138 14.87788,3.96668 3.24427,-1.51818 5.47659,-4.02886 6.59013,-7.41191 0.40455,-1.22907 0.47142,-1.74328 0.47887,-3.6821 l 0.009,-2.25353 1.79158,-0.7739 c 7.93954,-3.42963 20.26414,-9.58787 30.67551,-15.32765 l 1.38393,-0.76296 0,22.784 0,22.78399 -44.82435,0 -44.82434,0 0.0476,-4.75597 z"
       id="path4163"
       inkscape:connector-curvature="0" />
    <path
       style="fill:#ff0000;fill-opacity:1;fill-rule:nonzero;stroke:none"
       d="m 426.26509,747.16985 c 14.57235,-1.73685 29.57058,-4.40386 43.10131,-7.66435 1.65661,-0.3992 3.04278,-0.72581 3.08036,-0.72581 0.0376,0 0.0683,2.00893 0.0683,4.46429 l 0,4.46428 -25.22321,-0.0191 -25.22322,-0.0191 4.19643,-0.50016 z"
       id="path4165"
       inkscape:connector-curvature="0" />
    <path
       style="fill:#ff0000;fill-opacity:1;fill-rule:nonzero;stroke:none"
       d="m 290.90795,742.91345 0,-4.79482 3.52679,0.86874 c 14.434,3.55544 29.81045,6.33664 45.22321,8.17971 l 4.19643,0.50181 -26.47322,0.0197 -26.47321,0.0197 0,-4.79481 z"
       id="path4167"
       inkscape:connector-curvature="0" />
    <path
       style="fill:#ff0000;fill-opacity:1;fill-rule:nonzero;stroke:none"
       d="m 199.12224,724.21984 0,-23.48843 0.40178,0.21171 c 0.22098,0.11644 2.00893,1.11108 3.97322,2.21032 3.45976,1.93613 10.71561,5.79243 12.81656,6.81168 0.75772,0.3676 1.00156,0.57252 0.92032,0.77341 -0.34511,0.85328 -0.62649,3.25 -0.52477,4.46973 0.16063,1.92605 0.38614,2.73476 1.2913,4.63081 1.36492,2.85911 4.01341,5.14839 7.12256,6.15656 2.06614,0.66996 5.34601,0.66808 7.34267,-0.004 2.63559,-0.88743 5.06177,-2.71271 6.49026,-4.88283 l 0.28033,-0.42587 5.61253,2.25168 c 14.21152,5.70151 28.29001,10.43742 41.55002,13.97714 l 2.54464,0.67929 0,5.05872 0,5.05872 -44.91071,0 -44.91071,0 0,-23.48842 z"
       id="path4169"
       inkscape:connector-curvature="0" />
    <path
       style="fill:#ff0000;fill-opacity:1;fill-rule:nonzero;stroke:none"
       d="m 106.97938,702.61898 0,-45.08929 16.03368,0 16.03368,0 1.15748,1.02679 c 6.79181,6.02496 17.73028,14.74282 26.41802,21.05493 8.71886,6.33473 20.47545,14.05536 28.52358,18.73164 l 1.82715,1.06164 0.003,24.15179 0.003,24.15178 -45,0 -45,0 0,-45.08928 z"
       id="path4171"
       inkscape:connector-curvature="0" />
    <path
       style="fill:#ff0000;fill-opacity:1;fill-rule:nonzero;stroke:none"
       d="m 106.97938,640.47641 0,-14.91042 1.55936,1.74078 c 0.85765,0.95743 2.74005,3.00664 4.1831,4.55379 l 2.62372,2.81301 -0.61151,1.01552 c -1.21952,2.02522 -1.72082,3.85929 -1.72329,6.30489 -0.005,4.7965 2.45736,8.78231 6.73648,10.90494 3.77744,1.87378 8.57378,1.58055 12.00303,-0.73383 l 0.81988,-0.55333 1.17783,1.13804 c 0.6478,0.62591 1.55773,1.47531 2.02205,1.88753 l 0.84423,0.74951 -14.81744,0 -14.81744,0 0,-14.91043 z"
       id="path4173"
       inkscape:connector-curvature="0" />
    <path
       style="fill:#ff0000;fill-opacity:1;fill-rule:nonzero;stroke:none"
       d="m 15.193664,702.61898 0,-45.08929 44.821428,0 44.821428,0 0,45.08929 0,45.08928 -44.821428,0 -44.821428,0 0,-45.08928 z"
       id="path4175"
       inkscape:connector-curvature="0" />
    <path
       style="fill:#ff0000;fill-opacity:1;fill-rule:nonzero;stroke:none"
       d="m 15.193664,621.72612 0,-33.66071 31.301946,0 31.301947,0 1.867696,2.72151 c 6.053968,8.82155 14.459077,19.7526 22.210767,28.88563 l 2.95548,3.48214 0.003,16.11607 0.002,16.11608 -44.821428,0 -44.821428,0 0,-33.66072 z"
       id="path4177"
       inkscape:connector-curvature="0" />
    <path
       style="fill:#ff0000;fill-opacity:1;fill-rule:nonzero;stroke:none"
       d="m 15.193664,578.69041 0,-9.375 25.344037,0 25.344038,0 0.582011,1.02678 c 1.006937,1.77644 5.714637,9.25742 8.399894,13.34822 1.418322,2.16071 2.640041,4.02901 2.714932,4.15178 0.108731,0.17824 -6.162369,0.22322 -31.124373,0.22322 l -31.260539,0 0,-9.375 z"
       id="path4179"
       inkscape:connector-curvature="0" />
    <path
       style="fill:#ff0000;fill-opacity:1;fill-rule:nonzero;stroke:none"
       d="m 15.193664,520.29489 0,-47.05623 5.306457,0.0473 5.306457,0.0473 1.18634,4.375 c 2.693321,9.93247 6.807771,22.82799 9.864148,30.91624 l 0.447444,1.1841 -1.54428,0.76522 c -1.219929,0.6045 -1.844797,1.06863 -2.975066,2.2098 -2.42387,2.44722 -3.50368,5.09689 -3.49876,8.58536 0.003,2.1508 0.303182,3.41464 1.293461,5.44643 0.908051,1.86307 2.985693,4.05057 4.79237,5.04578 2.029254,1.1178 3.510814,1.47393 6.071429,1.45942 1.912837,-0.0108 2.435403,-0.0801 3.653055,-0.48385 0.781502,-0.25916 1.441109,-0.451 1.465797,-0.42631 0.02468,0.0247 0.961419,2.01027 2.08163,4.41242 2.355784,5.05167 5.253429,10.88281 7.938232,15.97468 1.884698,3.57443 6.445139,11.81208 7.239911,13.07766 0.232223,0.36979 0.518075,0.85314 0.635225,1.07413 l 0.213002,0.40178 -24.738427,0 -24.738425,0 0,-47.05623 z"
       id="path4181"
       inkscape:connector-curvature="0" />
    <path
       style="fill:#ff0000;fill-opacity:1;fill-rule:nonzero;stroke:none"
       d="m 15.216498,440.69934 0.02283,-30.58036 0.407015,4.375 c 1.682115,18.08103 4.92541,37.73714 8.757169,53.07315 0.434581,1.73934 0.790148,3.28622 0.790148,3.4375 0,0.24115 -0.61641,0.27506 -5,0.27506 l -5,0 0.02283,-30.58035 z"
       id="path4183"
       inkscape:connector-curvature="0" />
  </g>
</svg>
